<svg width="81" height="14" viewBox="0 0 81 14" fill="none" xmlns="http://www.w3.org/2000/svg">
<g clip-path="url(#clip0_192_57)">
<path d="M27.144 10.1733L27.6109 8.6639H30.5721L31.039 10.1733H33.1944L30.4634 1.59023H27.8603L24.9695 10.1733H27.144ZM30.1052 7.14811H28.129L29.1331 4.00782L30.1052 7.14811ZM36.5521 10.1733V1.3472H34.5055V10.1733H36.5521ZM40.7733 13.2304L40.7732 9.90804L40.7796 9.91388C40.8438 9.97323 40.9126 10.0264 40.9858 10.0735L41.0227 10.0965C41.334 10.2841 41.722 10.378 42.1868 10.378C42.7197 10.378 43.2197 10.2458 43.6866 9.98142C44.1534 9.71706 44.5308 9.33545 44.8186 8.83658C45.1064 8.33772 45.2503 7.73439 45.2503 7.0266C45.2503 6.31454 45.1085 5.70908 44.825 5.21021C44.5415 4.71134 44.1737 4.32973 43.7217 4.06538C43.2698 3.80102 42.7922 3.66884 42.2891 3.66884C41.9096 3.66884 41.5515 3.76584 41.2146 3.95985C40.9721 4.09953 40.7633 4.30055 40.5882 4.56291L40.5629 4.60157L40.396 3.87351H38.7267V13.2304H40.7733ZM41.8606 8.5104C41.6644 8.5104 41.4832 8.47416 41.3169 8.40168C41.1507 8.32919 41.0185 8.22899 40.9204 8.10108C40.8223 7.97316 40.7733 7.82393 40.7733 7.65338H40.7732V6.61727L40.7739 6.57331C40.7795 6.38448 40.8211 6.21727 40.8987 6.07167L40.9172 6.03846C41.0131 5.8743 41.1464 5.74745 41.3169 5.65791C41.4875 5.56837 41.6815 5.5236 41.899 5.5236C42.1676 5.5236 42.3989 5.58543 42.5929 5.70908C42.7869 5.83273 42.9372 6.00754 43.0438 6.23353C43.1504 6.45951 43.2037 6.72387 43.2037 7.0266C43.2037 7.38476 43.1323 7.67256 42.9894 7.89002C42.8466 8.10747 42.6718 8.26523 42.465 8.3633C42.2582 8.46137 42.0567 8.5104 41.8606 8.5104ZM48.0964 3.06125C48.4716 3.06125 48.768 2.96212 48.9854 2.76385C49.2029 2.56558 49.3116 2.28523 49.3116 1.92281C49.3116 1.56891 49.2029 1.28644 48.9854 1.07538C48.768 0.864318 48.4716 0.758789 48.0964 0.758789C47.7084 0.758789 47.4089 0.864318 47.1978 1.07538C46.9867 1.28644 46.8812 1.56891 46.8812 1.92281C46.8812 2.28523 46.9867 2.56558 47.1978 2.76385C47.4089 2.96212 47.7084 3.06125 48.0964 3.06125ZM49.1197 10.1733V3.83513H47.0731V10.1733H49.1197ZM53.52 10.1733V7.51907L53.5203 7.45395C53.5252 7.02378 53.5785 6.67202 53.6802 6.39866L53.6959 6.35824C53.8131 6.06617 53.9698 5.85405 54.1659 5.72187C54.3621 5.58969 54.5774 5.5236 54.8119 5.5236C55.0422 5.5236 55.2383 5.60355 55.4003 5.76344C55.5623 5.92333 55.6434 6.16957 55.6434 6.50215V10.1733H57.7028V6.50215C57.7028 5.95211 57.6218 5.46391 57.4597 5.03753C57.2977 4.61114 57.0451 4.27644 56.7019 4.0334C56.3586 3.79036 55.9162 3.66884 55.3747 3.66884C54.9015 3.66884 54.4783 3.80102 54.1052 4.06538C53.8736 4.22946 53.6724 4.45186 53.5016 4.73257L53.484 4.76205L53.2769 3.87351H51.4733V10.1733H53.52ZM62.2246 10.378C62.7447 10.378 63.2042 10.2841 63.6028 10.0965C64.0015 9.90893 64.3255 9.65524 64.575 9.33545C64.8244 9.01567 64.9811 8.65964 65.0451 8.26737H63.0112C62.9558 8.43365 62.8577 8.55517 62.717 8.63192C62.5763 8.70867 62.4122 8.74704 62.2246 8.74704C61.9943 8.74704 61.8035 8.69268 61.6521 8.58395C61.5008 8.47523 61.3867 8.3228 61.31 8.12666C61.2332 7.93052 61.1948 7.69815 61.1948 7.42953L61.195 7.44232H64.9811C65.0821 6.9899 65.1018 6.54993 65.0401 6.12239L65.0291 6.05125C64.9545 5.60142 64.7967 5.19742 64.5558 4.83926C64.3149 4.4811 63.9983 4.19649 63.606 3.98543C63.2138 3.77437 62.7533 3.66884 62.2246 3.66884C61.6916 3.66884 61.1927 3.80102 60.728 4.06538C60.2632 4.32973 59.888 4.71028 59.6023 5.20701C59.3166 5.70375 59.1738 6.29962 59.1738 6.99462C59.1738 7.68962 59.3177 8.29082 59.6055 8.79821C59.8933 9.3056 60.2696 9.69574 60.7344 9.96863C61.1991 10.2415 61.6958 10.378 62.2246 10.378ZM63.1966 6.40621H61.204L61.2042 6.40445C61.2197 6.22954 61.2547 6.07405 61.3091 5.93799L61.326 5.89775C61.4134 5.69948 61.537 5.54812 61.6969 5.44365C61.8568 5.33919 62.0455 5.28696 62.2629 5.28696C62.4591 5.28696 62.62 5.3264 62.7458 5.40528C62.8716 5.48416 62.9686 5.58862 63.0368 5.71867C63.105 5.84872 63.1509 5.99049 63.1743 6.14399C63.186 6.22073 63.1932 6.29695 63.1959 6.37263L63.1966 6.40621ZM67.2196 10.2884C67.6247 10.2884 67.9594 10.1658 68.2237 9.92066C68.4881 9.67549 68.6203 9.36316 68.6203 8.98369C68.6203 8.60421 68.4881 8.28868 68.2237 8.03712C67.9594 7.78555 67.6247 7.65977 67.2196 7.65977C66.8146 7.65977 66.4852 7.78555 66.2315 8.03712C65.9778 8.28868 65.8509 8.60421 65.8509 8.98369C65.8509 9.3589 65.9778 9.67016 66.2315 9.91746C66.4852 10.1648 66.8146 10.2884 67.2196 10.2884ZM71.1274 3.06125C71.5026 3.06125 71.799 2.96212 72.0164 2.76385C72.2339 2.56558 72.3426 2.28523 72.3426 1.92281C72.3426 1.56891 72.2339 1.28644 72.0164 1.07538C71.799 0.864318 71.5026 0.758789 71.1274 0.758789C70.7522 0.758789 70.4537 0.864318 70.232 1.07538C70.0103 1.28644 69.8994 1.56891 69.8994 1.92281C69.8994 2.28523 70.0103 2.56558 70.232 2.76385C70.4537 2.96212 70.7522 3.06125 71.1274 3.06125ZM69.9058 13.4543C70.652 13.4543 71.2169 13.2507 71.6007 12.8435C71.9844 12.4363 72.1763 11.7488 72.1763 10.7809V3.84792H70.1169V10.7425C70.1169 11.1092 70.0519 11.3544 69.9218 11.478C69.7918 11.6017 69.5946 11.6635 69.3302 11.6635C69.1255 11.6635 68.9038 11.6336 68.665 11.574C68.4263 11.5143 68.2152 11.4482 68.0319 11.3757V13.1345C68.3261 13.2155 68.6181 13.2891 68.9081 13.3552C69.198 13.4213 69.5306 13.4543 69.9058 13.4543ZM76.9603 10.378C77.489 10.378 77.9623 10.2799 78.3801 10.0838C78.798 9.88762 79.1274 9.63285 79.3683 9.31946C79.6092 9.00607 79.7296 8.67456 79.7296 8.32493C79.7296 7.94118 79.606 7.6214 79.3587 7.36557C79.1114 7.10974 78.7724 6.89655 78.3418 6.726L76.6021 6.02886C76.3335 5.93506 76.1992 5.80715 76.1992 5.64512C76.1992 5.52573 76.2632 5.4298 76.3911 5.35731C76.519 5.28483 76.6938 5.24859 76.9155 5.24859C77.1841 5.24859 77.376 5.29869 77.4911 5.39888C77.6063 5.49908 77.6638 5.6174 77.6638 5.75385H79.5378C79.5335 5.14839 79.3054 4.64952 78.8534 4.25725C78.4015 3.86498 77.7555 3.66884 76.9155 3.66884C76.0201 3.66884 75.3145 3.84153 74.7985 4.1869C74.2826 4.53226 74.0247 4.98423 74.0247 5.54279C74.0247 5.93932 74.1472 6.28149 74.3924 6.5693C74.6376 6.85711 74.9861 7.09482 75.4381 7.28242L76.9667 7.87723C77.1287 7.94118 77.2481 8.00514 77.3248 8.0691C77.4016 8.13306 77.44 8.21833 77.44 8.32493C77.44 8.40594 77.4123 8.48162 77.3568 8.55198C77.3014 8.62233 77.2183 8.67882 77.1074 8.72146C76.9965 8.7641 76.8558 8.78542 76.6853 8.78542C76.4039 8.78542 76.1811 8.74278 76.0169 8.6575C75.8528 8.57223 75.7664 8.41873 75.7579 8.19701H73.9095C73.9053 8.68735 74.0321 9.09348 74.2901 9.4154C74.548 9.73732 74.9073 9.97822 75.3678 10.1381C75.8283 10.298 76.3591 10.378 76.9603 10.378Z" fill="#2D3441"/>
<path fill-rule="evenodd" clip-rule="evenodd" d="M17.0706 1.02197L21.7072 5.6382L17.0706 10.2544L12.4341 5.6382L17.0706 1.02197Z" fill="#77C1D2"/>
<path fill-rule="evenodd" clip-rule="evenodd" d="M5.47933 1.02197L15.0915 10.592H5.81838L0.842773 5.6382L5.47933 1.02197Z" fill="#2D3441"/>
</g>
<defs>
<clipPath id="clip0_192_57">
<rect width="80" height="13.8776" fill="white" transform="translate(0.5 0.0610352)"/>
</clipPath>
</defs>
</svg>
