<svg width="26" height="26" viewBox="0 0 26 26" fill="none" xmlns="http://www.w3.org/2000/svg">
<g clip-path="url(#clip0_192_153)">
<path d="M0.5 22.2765C0.5 24.0569 1.94326 25.5 3.72354 25.5H22.2764C24.0569 25.5 25.5 24.0567 25.5 22.2765V3.72363C25.5 1.94307 24.0567 0.5 22.2765 0.5H3.72363C1.94307 0.5 0.5 1.94326 0.5 3.72354V22.2765Z" fill="#D989B5"/>
<path d="M10.867 11.5584V8.01807H13.9833C14.2802 8.01807 14.5663 8.04277 14.8419 8.09229C15.1175 8.1417 15.3613 8.22998 15.5733 8.35723C15.7853 8.48447 15.9549 8.66113 16.0821 8.88721C16.2093 9.11338 16.273 9.40313 16.273 9.75635C16.273 10.3924 16.0821 10.8518 15.7005 11.1344C15.3189 11.4171 14.8313 11.5584 14.2377 11.5584H10.867ZM7.53857 5.43164V20.5684H14.8737C15.5521 20.5684 16.2129 20.4836 16.856 20.314C17.499 20.1443 18.0714 19.8829 18.5731 19.5296C19.0748 19.1763 19.4741 18.7204 19.7709 18.1622C20.0678 17.6039 20.2161 16.9432 20.2161 16.18C20.2161 15.233 19.9864 14.4239 19.5271 13.7526C19.0678 13.0813 18.3717 12.6113 17.4389 12.3428C18.1173 12.0178 18.6297 11.6008 18.976 11.092C19.3222 10.5832 19.4953 9.94727 19.4953 9.18398C19.4953 8.47734 19.3787 7.88379 19.1455 7.40322C18.9123 6.92275 18.5837 6.5376 18.1597 6.24785C17.7357 5.95811 17.227 5.74961 16.6333 5.62246C16.0397 5.49521 15.3825 5.43164 14.6617 5.43164H7.53857ZM10.867 17.9819V13.8268H14.4921C15.2129 13.8268 15.7924 13.9928 16.2306 14.325C16.6687 14.6571 16.8878 15.2118 16.8878 15.9892C16.8878 16.385 16.8206 16.71 16.6863 16.9644C16.5521 17.2188 16.3719 17.4202 16.1457 17.5686C15.9196 17.717 15.6581 17.8229 15.3613 17.8866C15.0645 17.9501 14.7536 17.9819 14.4285 17.9819H10.867Z" fill="white"/>
</g>
<defs>
<clipPath id="clip0_192_153">
<rect width="25" height="25" fill="white" transform="translate(0.5 0.5)"/>
</clipPath>
</defs>
</svg>
