<svg width="26" height="26" viewBox="0 0 26 26" fill="none" xmlns="http://www.w3.org/2000/svg">
<g clip-path="url(#clip0_192_51)">
<path d="M0.847168 0.847168H25.1527V25.1527H0.847168V0.847168ZM7.23413 21.1558C7.77425 22.3036 8.84099 23.2488 10.6639 23.2488C12.6894 23.2488 14.0802 22.1685 14.0802 19.8055V12.0007H11.7847V19.7515C11.7847 20.9128 11.3121 21.2098 10.5694 21.2098C9.78621 21.2098 9.46214 20.6697 9.09755 20.0351L7.23413 21.1558ZM15.309 20.9128C15.9841 22.2361 17.3479 23.2488 19.4814 23.2488C21.6419 23.2488 23.2623 22.128 23.2623 20.0621C23.2623 18.1581 22.1685 17.3074 20.2241 16.4702L19.657 16.2272C18.6712 15.8086 18.2526 15.525 18.2526 14.8499C18.2526 14.2962 18.6712 13.8641 19.3464 13.8641C19.9945 13.8641 20.4266 14.1477 20.8182 14.8499L22.5871 13.6751C21.8445 12.3788 20.7912 11.8792 19.3464 11.8792C17.3074 11.8792 15.9976 13.1755 15.9976 14.8904C15.9976 16.7538 17.0914 17.6315 18.7388 18.3337L19.3059 18.5767C20.3591 19.0358 20.9803 19.3194 20.9803 20.1026C20.9803 20.7507 20.3726 21.2233 19.4274 21.2233C18.3067 21.2233 17.6585 20.6427 17.1724 19.8325L15.309 20.9128Z" fill="#FFCA28"/>
</g>
<defs>
<clipPath id="clip0_192_51">
<rect width="25" height="25" fill="white" transform="translate(0.5 0.5)"/>
</clipPath>
</defs>
</svg>
