<svg width="61" height="18" viewBox="0 0 61 18" fill="none" xmlns="http://www.w3.org/2000/svg">
<g clip-path="url(#clip0_192_68)">
<path d="M4.06016 0.259766C4.01227 0.259813 3.96524 0.27242 3.92375 0.296328L0.636875 2.1882C0.625625 2.19523 0.616719 2.20414 0.606406 2.21164C0.5975 2.21867 0.587656 2.22477 0.579687 2.23227C0.570312 2.24164 0.563281 2.25336 0.555312 2.26414C0.549219 2.27258 0.541719 2.27961 0.536563 2.28852C0.529063 2.30211 0.524375 2.31664 0.519219 2.33117C0.516406 2.33914 0.511719 2.34617 0.509844 2.35461C0.503454 2.37783 0.500144 2.40178 0.5 2.42586V13.682C0.5 13.7804 0.5525 13.8709 0.637344 13.9196L7.21016 17.7038C7.22469 17.7123 7.24016 17.717 7.25562 17.7226C7.26266 17.7249 7.26969 17.7291 7.27672 17.731C7.29969 17.7371 7.32359 17.7404 7.34703 17.7404C7.37078 17.7404 7.39442 17.7372 7.41734 17.731C7.42344 17.7296 7.42953 17.7259 7.43609 17.7235C7.45203 17.7179 7.46844 17.7127 7.48344 17.7038L14.0567 13.9196C14.0984 13.8956 14.1331 13.8611 14.1572 13.8194C14.1813 13.7778 14.194 13.7305 14.1941 13.6824V10.0885L17.3431 8.27539C17.3849 8.25134 17.4196 8.21671 17.4437 8.17498C17.4678 8.13326 17.4805 8.08592 17.4805 8.03773V4.28539C17.4805 4.26133 17.4773 4.23738 17.4711 4.21414C17.4683 4.20617 17.4641 4.19914 17.4612 4.19117C17.4556 4.17711 17.4514 4.16211 17.4434 4.14898C17.4387 4.13961 17.4308 4.13258 17.4247 4.12461C17.4167 4.11383 17.4102 4.10211 17.4003 4.09273C17.3928 4.08476 17.3825 4.07867 17.3736 4.07211C17.3638 4.06414 17.3548 4.05523 17.3436 4.04867L14.0562 2.15633C14.0147 2.13239 13.9676 2.11979 13.9196 2.11979C13.8716 2.11979 13.8245 2.13239 13.783 2.15633L10.4966 4.04867C10.4848 4.05523 10.4759 4.06414 10.4661 4.07211C10.4567 4.07867 10.4473 4.08476 10.4394 4.09227C10.43 4.10164 10.423 4.11336 10.415 4.12414C10.4089 4.13258 10.4009 4.14008 10.3962 4.14898C10.3888 4.16211 10.3841 4.17664 10.3784 4.19117C10.3756 4.19914 10.3714 4.20617 10.3691 4.21414C10.3628 4.23738 10.3597 4.26133 10.3597 4.28539V7.8793L7.62078 9.45617V2.42586C7.62086 2.40164 7.61771 2.37752 7.61141 2.35414C7.60859 2.34617 7.60437 2.33914 7.60156 2.33117C7.59594 2.31711 7.59172 2.30211 7.58375 2.28898C7.57906 2.27961 7.57109 2.27258 7.565 2.26414C7.55703 2.25336 7.55 2.24211 7.54063 2.23227C7.53266 2.22477 7.52281 2.21867 7.51391 2.21164C7.50406 2.20414 7.49516 2.19523 7.48391 2.1882H7.48344L4.19703 0.296328C4.15541 0.272341 4.1082 0.259731 4.06016 0.259766ZM4.06016 0.849453L6.79766 2.42586L4.06016 4.0018L1.32266 2.42586L4.06016 0.849453ZM13.9198 2.70945L16.6573 4.28586L13.9198 5.8618L11.1823 4.28586L13.9198 2.70945ZM7.07281 2.8993V9.77117L5.48422 10.6862L4.33438 11.3485V4.47664L5.92344 3.56164L7.07281 2.8993ZM1.0475 2.8993L2.19734 3.56164L3.78641 4.47617V11.8234C3.78641 11.8337 3.78922 11.8435 3.79063 11.8538C3.79203 11.8674 3.7925 11.881 3.79578 11.8941C3.79906 11.9049 3.80516 11.9152 3.80891 11.9255C3.81359 11.9368 3.81688 11.949 3.82297 11.9598L3.82391 11.9607C3.82953 11.9701 3.8375 11.978 3.84406 11.987C3.85156 11.9968 3.85812 12.0076 3.86656 12.016L3.8675 12.017C3.87547 12.0245 3.88531 12.0301 3.89375 12.0366C3.90359 12.0446 3.9125 12.0535 3.92328 12.0601H3.92469L3.92563 12.061L7.07328 13.8423V16.9932L1.04797 13.5245L1.0475 2.8993ZM21.8502 4.2868V13.5277H26.2194V12.1679H23.368V4.2868H21.8502ZM59.0614 4.2868V13.5277H60.5V4.2868H59.0614ZM10.9062 4.7593L12.057 5.42164L13.6456 6.33617V9.45617L12.4953 8.7943L10.9062 7.87977V4.7593ZM16.932 4.7593V7.87977L14.1931 9.45664V6.33617L15.7822 5.42164L16.932 4.7593ZM29.6773 7.21695C29.2109 7.21695 28.7844 7.3032 28.3972 7.47476C28.0199 7.63926 27.6805 7.87973 27.4002 8.18117C26.8324 8.80073 26.5189 9.61145 26.5222 10.4518C26.5222 10.892 26.5995 11.3054 26.7533 11.6926C26.9029 12.0732 27.1223 12.4224 27.4002 12.7224C27.6777 13.0215 28.0095 13.2568 28.3972 13.4284C28.7844 13.5999 29.2109 13.6862 29.6778 13.6862C30.0387 13.6862 30.3973 13.598 30.7536 13.4218C31.1098 13.246 31.385 13.0041 31.5786 12.6957V13.5277H33.0177V7.37586H31.5786V8.20742C31.385 7.89945 31.1098 7.65758 30.7536 7.48133C30.3973 7.30555 30.0387 7.21742 29.6778 7.21742L29.6773 7.21695ZM41.3745 7.21695C40.9077 7.21695 40.4811 7.3032 40.0934 7.47476C39.7163 7.63934 39.3771 7.8798 39.0969 8.18117C38.8181 8.4828 38.5987 8.83424 38.45 9.21711C38.2956 9.61036 38.2172 10.0293 38.2189 10.4518C38.2189 10.892 38.2958 11.3054 38.45 11.6926C38.5996 12.0732 38.819 12.4224 39.0969 12.7224C39.3771 13.0236 39.7164 13.2639 40.0934 13.4284C40.4806 13.5999 40.9077 13.6862 41.3745 13.6862C41.7355 13.6862 42.0936 13.598 42.4503 13.4218C42.8066 13.246 43.0817 13.0041 43.2753 12.6957V13.5277H44.7144V7.37586H43.2753V8.20742C43.0812 7.89945 42.8066 7.65758 42.4503 7.48133C42.0941 7.30555 41.735 7.21695 41.3745 7.21695ZM55.0789 7.21742C53.3169 7.21742 51.9223 8.66586 51.9223 10.4518C51.9223 12.4262 53.2723 13.6862 55.2636 13.6862C56.3778 13.6862 57.0894 13.2596 57.9589 12.3315L56.9867 11.5796C56.9862 11.5805 56.2531 12.5429 55.1586 12.5429C53.8855 12.5429 53.3502 11.5173 53.3502 10.9866H58.1234C58.3742 8.95414 57.0383 7.21789 55.0789 7.21789V7.21742ZM34.153 7.37586V13.5277H35.592V8.79148H38.0609V7.37586H34.153ZM45.4086 7.37586L47.7702 13.5277H49.5791L51.9406 7.37586H50.4828L48.6748 12.0868L46.8659 7.37586H45.4086ZM10.633 8.35414L13.3686 9.92914L11.3614 11.0748L7.34562 13.367L4.61234 11.8201L7.48297 10.1673L10.633 8.35414ZM55.0677 8.3607C56.6047 8.3607 56.7912 9.79836 56.802 9.91695H53.3539C53.3647 9.79883 53.5306 8.3607 55.0677 8.3607ZM29.7566 8.49805C30.0294 8.49805 30.2783 8.55055 30.5028 8.65648C30.7273 8.76195 30.9186 8.90305 31.077 9.07836C31.2355 9.25508 31.3587 9.4618 31.4469 9.69898C31.5345 9.93664 31.5786 10.1874 31.5786 10.4518C31.5786 10.7157 31.5345 10.9665 31.4469 11.2041C31.3642 11.4327 31.2387 11.6433 31.077 11.8248C30.9159 12.0026 30.7206 12.146 30.5028 12.2466C30.269 12.3545 30.014 12.4088 29.7566 12.4055C29.5013 12.4094 29.2486 12.3552 29.0173 12.2471C28.8023 12.1451 28.6095 12.0016 28.4502 11.8248C28.2889 11.6442 28.1654 11.4332 28.0869 11.2041C28.0024 10.9624 27.9599 10.7079 27.9613 10.4518C27.9613 10.1874 28.0034 9.93664 28.0869 9.69898C28.1703 9.4618 28.2917 9.25508 28.4502 9.07883C28.6096 8.90208 28.8023 8.75856 29.0173 8.65648C29.2377 8.55055 29.4833 8.49805 29.7566 8.49805ZM41.4533 8.49805C41.7106 8.49457 41.9654 8.54871 42.1991 8.65648C42.4241 8.76195 42.6153 8.90305 42.7738 9.07836C42.9322 9.25508 43.055 9.4618 43.1431 9.69898C43.2319 9.93999 43.2766 10.195 43.2753 10.4518C43.2765 10.7085 43.2317 10.9633 43.1431 11.2041C43.0606 11.4326 42.9353 11.6433 42.7738 11.8248C42.6125 12.0026 42.417 12.1461 42.1991 12.2466C41.9655 12.3544 41.7109 12.4086 41.4537 12.4055C41.1984 12.4094 40.9454 12.3553 40.7141 12.2471C40.4988 12.1452 40.3059 12.0016 40.1464 11.8248C39.9853 11.6441 39.862 11.4331 39.7836 11.2041C39.6991 10.9624 39.6566 10.7079 39.658 10.4518C39.658 10.1874 39.6997 9.93664 39.7831 9.69898C39.8666 9.4618 39.988 9.25508 40.1464 9.07883C40.3058 8.90208 40.4986 8.75856 40.7136 8.65648C40.9339 8.55055 41.1805 8.49805 41.4533 8.49805ZM13.6461 10.4016V13.5235L7.62078 16.9923V13.8409L12.0833 11.2937L13.6461 10.4016Z" fill="#F0513F"/>
</g>
<defs>
<clipPath id="clip0_192_68">
<rect width="60" height="18" fill="white" transform="translate(0.5)"/>
</clipPath>
</defs>
</svg>
