<svg width="31" height="16" viewBox="0 0 31 16" fill="none" xmlns="http://www.w3.org/2000/svg">
<g clip-path="url(#clip0_192_63)">
<path d="M15.4999 15.3023C23.4605 15.3023 29.9139 12.0331 29.9139 8.00026C29.9139 3.96747 23.4605 0.698242 15.4999 0.698242C7.53929 0.698242 1.08594 3.96747 1.08594 8.00026C1.08594 12.0331 7.53929 15.3023 15.4999 15.3023Z" fill="#6181B6"/>
<path d="M18.4185 10.3602L19.1348 6.68203C19.2975 5.85203 19.1619 5.23362 18.7333 4.84293C18.3209 4.46319 17.6212 4.2787 16.5904 4.2787H15.3538L15.7062 2.45594C15.7172 2.38541 15.701 2.31488 15.6576 2.2607C15.6142 2.20651 15.5492 2.17383 15.4785 2.17383H13.7697C13.6557 2.17383 13.5635 2.25532 13.5418 2.3637L12.7823 6.26962C12.7118 5.83011 12.5436 5.45038 12.2725 5.14117C11.7734 4.56619 10.9759 4.2787 9.91794 4.2787H6.60334C6.48938 4.2787 6.39713 4.36019 6.37542 4.46857L4.83477 12.3727C4.82401 12.4434 4.84014 12.5139 4.88358 12.5681C4.92701 12.6223 4.99195 12.655 5.06269 12.655H6.78783C6.90179 12.655 6.99404 12.5733 7.01575 12.4651L7.39011 10.5499H8.67037C9.34297 10.5499 9.90719 10.4794 10.3521 10.3329C10.8023 10.1863 11.2199 9.93686 11.5835 9.59518C11.8818 9.32383 12.126 9.02021 12.3105 8.68928L12.0013 10.268C11.9903 10.3383 12.0067 10.409 12.0501 10.463C12.0936 10.5174 12.1587 10.5499 12.2292 10.5499H13.938C14.052 10.5499 14.1442 10.4684 14.166 10.36L15.0069 6.02018H16.1788C16.6777 6.02018 16.8243 6.11781 16.8624 6.16124C16.9004 6.1993 16.9763 6.34035 16.8895 6.7689L16.222 10.2734C16.2111 10.3441 16.2274 10.4144 16.2708 10.4686C16.3143 10.5228 16.3792 10.5555 16.4497 10.5555H18.1858C18.2994 10.5501 18.3968 10.4742 18.4185 10.3602ZM10.4981 7.32216C10.3897 7.87542 10.1889 8.26591 9.89581 8.49383C9.59757 8.72175 9.12539 8.83551 8.48546 8.83551H7.72041L8.27388 5.99288H9.26106C9.98806 5.99288 10.2809 6.15028 10.3949 6.28037C10.5579 6.45969 10.5959 6.81771 10.4981 7.32216Z" fill="white"/>
<path d="M25.7259 5.14128C25.2268 4.5663 24.4293 4.27881 23.3714 4.27881H20.057C19.943 4.27881 19.8508 4.3603 19.829 4.46868L18.2936 12.3783C18.2826 12.4487 18.2991 12.5194 18.3424 12.5734C18.3858 12.6278 18.451 12.6603 18.5213 12.6603H20.2466C20.3606 12.6603 20.4526 12.579 20.4746 12.4704L20.8489 10.5554H22.1292C22.8018 10.5554 23.366 10.4848 23.8109 10.3382C24.2613 10.192 24.6789 9.94234 25.0423 9.60067C25.3461 9.31855 25.6012 9.00397 25.791 8.66209C25.9809 8.32041 26.1164 7.94067 26.1979 7.53364C26.3879 6.52453 26.2305 5.72184 25.7259 5.14128ZM23.9412 7.32206C23.833 7.87532 23.6322 8.26581 23.3393 8.49373C23.0409 8.72165 22.5689 8.83541 21.9287 8.83541H21.1639L21.7172 5.99278H22.7046C23.4316 5.99278 23.7244 6.15018 23.8382 6.28027C24.0063 6.45959 24.0388 6.81761 23.9412 7.32206Z" fill="white"/>
</g>
<defs>
<clipPath id="clip0_192_63">
<rect width="30" height="15" fill="white" transform="translate(0.5 0.5)"/>
</clipPath>
</defs>
</svg>
