<svg width="81" height="10" viewBox="0 0 81 10" fill="none" xmlns="http://www.w3.org/2000/svg">
<g clip-path="url(#clip0_192_53)">
<path d="M13.5605 0.799805C11.3577 0.799805 9.98095 1.90119 9.43025 4.10397C10.2563 3.00258 11.22 2.58956 12.3214 2.86491C12.9498 3.02201 13.399 3.47789 13.8961 3.98254C14.706 4.8046 15.6433 5.75605 17.6907 5.75605C19.8934 5.75605 21.2702 4.65466 21.8209 2.45189C20.9948 3.55327 20.0311 3.96629 18.9297 3.69095C18.3013 3.53385 17.8522 3.07796 17.355 2.57331C16.5451 1.75125 15.6078 0.799805 13.5605 0.799805ZM9.43025 5.75605C7.22748 5.75605 5.85074 6.85744 5.30005 9.06021C6.12609 7.95883 7.0898 7.5458 8.19119 7.82115C8.81959 7.97825 9.26875 8.43413 9.7659 8.93878C10.5758 9.76085 11.5131 10.7123 13.5605 10.7123C15.7632 10.7123 17.14 9.61091 17.6907 7.40813C16.8646 8.50952 15.9009 8.92254 14.7995 8.64719C14.1711 8.49009 13.722 8.03421 13.2248 7.52956C12.4149 6.7075 11.4776 5.75605 9.43025 5.75605Z" fill="url(#paint0_linear_192_53)"/>
<path d="M30.08 4.97675H28.6384V7.76694C28.6384 8.51098 29.1267 8.49936 30.08 8.45286V9.58055C28.1501 9.81307 27.3828 9.27829 27.3828 7.76694V4.97675H26.3132V3.76767H27.3828V2.20615L28.6384 1.83413V3.76767H30.08V4.97675ZM35.5753 3.76767H36.8309V9.58055H35.5753V8.7435C35.1335 9.35966 34.4476 9.73169 33.5408 9.73169C31.9597 9.73169 30.646 8.39473 30.646 6.67411C30.646 4.94188 31.9597 3.61654 33.5408 3.61654C34.4476 3.61654 35.1335 3.98856 35.5753 4.5931V3.76767ZM33.7384 8.53424C34.7847 8.53424 35.5753 7.75531 35.5753 6.67411C35.5753 5.59292 34.7847 4.81399 33.7384 4.81399C32.6921 4.81399 31.9016 5.59292 31.9016 6.67411C31.9016 7.75531 32.6921 8.53424 33.7384 8.53424ZM38.9235 2.89574C38.4817 2.89574 38.1213 2.52372 38.1213 2.09357C38.1213 1.65179 38.4817 1.29139 38.9235 1.29139C39.3653 1.29139 39.7257 1.65179 39.7257 2.09357C39.7257 2.52372 39.3653 2.89574 38.9235 2.89574ZM38.2957 9.58055V3.76767H39.5513V9.58055H38.2957ZM41.0045 9.58055V1.09375H42.2601V9.58055H41.0045ZM50.4098 3.76767H51.7351L49.9099 9.58055H48.6775L47.4684 5.66267L46.2477 9.58055H45.0154L43.1902 3.76767H44.5155L45.6432 7.77856L46.8639 3.76767H48.0614L49.2704 7.77856L50.4098 3.76767ZM53.2929 2.89574C52.8512 2.89574 52.4908 2.52372 52.4908 2.09357C52.4908 1.65179 52.8512 1.29139 53.2929 1.29139C53.7347 1.29139 54.0951 1.65179 54.0951 2.09357C54.0951 2.52372 53.7347 2.89574 53.2929 2.89574ZM52.6652 9.58055V3.76767H53.9207V9.58055H52.6652ZM58.4315 3.61654C59.7336 3.61654 60.6637 4.5001 60.6637 6.01145V9.58055H59.4081V6.13933C59.4081 5.25577 58.8966 4.79074 58.106 4.79074C57.2806 4.79074 56.6295 5.27902 56.6295 6.46485V9.58055H55.374V3.76767H56.6295V4.51172C57.0132 3.90718 57.641 3.61654 58.4315 3.61654ZM66.6161 1.44252H67.8717V9.58055H66.6161V8.7435C66.1743 9.35966 65.4884 9.73169 64.5816 9.73169C63.0005 9.73169 61.6867 8.39473 61.6867 6.67411C61.6867 4.94188 63.0005 3.61654 64.5816 3.61654C65.4884 3.61654 66.1743 3.98856 66.6161 4.5931V1.44252ZM64.7792 8.53424C65.8255 8.53424 66.6161 7.75531 66.6161 6.67411C66.6161 5.59292 65.8255 4.81399 64.7792 4.81399C63.7329 4.81399 62.9423 5.59292 62.9423 6.67411C62.9423 7.75531 63.7329 8.53424 64.7792 8.53424ZM72.0802 9.73169C70.3247 9.73169 69.011 8.39473 69.011 6.67411C69.011 4.94188 70.3247 3.61654 72.0802 3.61654C73.2195 3.61654 74.2077 4.20945 74.6727 5.11626L73.5915 5.74405C73.3358 5.19764 72.7661 4.84887 72.0686 4.84887C71.0455 4.84887 70.2666 5.6278 70.2666 6.67411C70.2666 7.72043 71.0455 8.49936 72.0686 8.49936C72.7661 8.49936 73.3358 8.13896 73.6148 7.60418L74.696 8.22034C74.2077 9.13878 73.2195 9.73169 72.0802 9.73169ZM76.7654 5.37203C76.7654 6.42997 79.8927 5.79056 79.8927 7.94132C79.8927 9.1039 78.8812 9.73169 77.6257 9.73169C76.4631 9.73169 75.626 9.20853 75.254 8.37148L76.3352 7.74368C76.5212 8.26684 76.9862 8.58074 77.6257 8.58074C78.1837 8.58074 78.6139 8.39473 78.6139 7.9297C78.6139 6.895 75.4865 7.47629 75.4865 5.39528C75.4865 4.30246 76.4282 3.61654 77.614 3.61654C78.5674 3.61654 79.3579 4.05832 79.7648 4.82562L78.7069 5.41853C78.4976 4.96513 78.0907 4.75586 77.614 4.75586C77.1606 4.75586 76.7654 4.9535 76.7654 5.37203ZM82.1248 5.37203C82.1248 6.42997 85.2522 5.79056 85.2522 7.94132C85.2522 9.1039 84.2407 9.73169 82.9851 9.73169C81.8226 9.73169 80.9855 9.20853 80.6135 8.37148L81.6947 7.74368C81.8807 8.26684 82.3457 8.58074 82.9851 8.58074C83.5432 8.58074 83.9733 8.39473 83.9733 7.9297C83.9733 6.895 80.846 7.47629 80.846 5.39528C80.846 4.30246 81.7877 3.61654 82.9735 3.61654C83.9268 3.61654 84.7174 4.05832 85.1243 4.82562L84.0663 5.41853C83.8571 4.96513 83.4502 4.75586 82.9735 4.75586C82.5201 4.75586 82.1248 4.9535 82.1248 5.37203Z" fill="#2D3748"/>
</g>
<defs>
<linearGradient id="paint0_linear_192_53" x1="-40.5911" y1="317.999" x2="1386.25" y2="1140.68" gradientUnits="userSpaceOnUse">
<stop stop-color="#2298BD"/>
<stop offset="1" stop-color="#0ED7B5"/>
</linearGradient>
<clipPath id="clip0_192_53">
<rect width="80" height="10" fill="white" transform="translate(0.5)"/>
</clipPath>
</defs>
</svg>
