<svg width="472" height="369" viewBox="0 0 472 369" fill="none" xmlns="http://www.w3.org/2000/svg">
<g clip-path="url(#clip0_123_24)">
<path d="M217.188 357.804C341.137 374.465 499.568 255.485 447.531 174.33C432.075 150.225 401.428 140.951 381.045 120.846C362.484 102.539 353.424 76.2173 334.647 58.1307C316.385 40.5374 289.411 32.4744 264.495 37.159C237.567 42.2223 214.349 60.8538 187.145 64.1131C158.455 67.5505 144.178 55.6082 102.451 75.7219C48.4953 101.73 42.1533 137.394 42.371 198.949C42.7204 298.003 101.835 253.008 89.4393 343.39C88.6481 349.161 87.8849 355.449 90.8618 360.455C96.3569 369.693 109.889 368.443 120.353 365.995C154.66 357.967 181.88 353.295 217.188 357.804Z" fill="#5CB4C2"/>
<path d="M109.161 366.997C100.791 366.997 95.0061 364.373 91.8941 359.139C88.6192 353.633 89.5732 346.678 90.3397 341.092C96.7471 294.372 84.7396 283.129 70.8347 270.109C57.2717 257.41 41.8993 243.016 41.7192 191.996C41.6066 160.146 43.2811 134.75 51.8142 114.336C60.8597 92.6986 76.9976 77.2149 104.143 64.1304C133.374 50.0399 149.348 51.0824 166.262 52.186C174.119 52.6987 182.243 53.2285 191.824 52.0809C206.609 50.3091 220.534 43.9814 234.002 37.8617C246.053 32.3844 258.516 26.7216 271.672 24.2485C297.663 19.3611 325.649 27.7266 344.702 46.0803C354.573 55.5891 361.96 67.4498 369.105 78.9213C376.042 90.0581 383.213 101.575 392.629 110.861C401.312 119.426 411.989 126.192 422.314 132.734C436.895 141.972 451.971 151.524 461.391 166.215C469.594 179.008 473.067 193.151 471.715 208.251C470.454 222.338 465.038 236.986 455.618 251.788C435.971 282.66 400.161 311.939 357.372 332.118C320.883 349.325 282.866 358.347 247.897 358.348C239.34 358.348 230.972 357.809 222.846 356.716C188.235 352.296 161.066 356.273 123.064 365.164C117.834 366.387 113.197 366.997 109.161 366.997ZM152.724 52.911C140.079 52.911 125.922 55.0818 104.708 65.307C51.6362 90.8882 42.7869 125.063 43.0227 191.993C43.2007 242.45 58.3545 256.639 71.7255 269.158C78.7053 275.693 85.297 281.865 89.3535 292.39C93.873 304.116 94.5966 319.648 91.6315 341.27C90.8929 346.656 89.9731 353.358 93.0154 358.473C97.3045 365.684 107.315 367.51 122.766 363.893C160.916 354.968 188.192 350.975 223.015 355.421C231.153 356.515 239.421 357.038 247.736 357.038C331.043 357.042 420.367 304.748 454.517 251.085C468.093 229.753 480.117 197.834 460.292 166.919C451.029 152.471 436.076 142.998 421.616 133.835C411.232 127.257 400.495 120.453 391.712 111.79C382.187 102.395 374.973 90.8121 367.997 79.612C360.895 68.2081 353.551 56.417 343.797 47.0208C325.043 28.9546 297.499 20.721 271.912 25.5312C258.911 27.9754 246.522 33.606 234.54 39.05C220.982 45.2105 206.963 51.5822 191.977 53.3765C182.278 54.5391 174.092 54.005 166.175 53.488C161.715 53.1985 157.318 52.911 152.724 52.911Z" fill="#99D8DD"/>
<path d="M447.032 239.532L446.363 239.449C439.485 238.593 435.694 230.986 439.181 224.993C448.394 209.162 456.15 192.483 462.312 175.233C467.643 160.308 462.822 158.522 458.37 150.829C448.914 134.488 459.779 109.528 445.589 97.0796C443.32 95.0901 440.527 93.6047 438.848 91.0972C434.13 84.0477 439.818 57.351 425.571 34.5647C419.788 25.3154 405.67 15.5203 397.367 34.0939C386.428 58.564 386.97 98.2723 359.095 112.353C322.705 130.735 284.887 83.8214 258.35 238.553C252.423 273.111 237.053 307.22 318.821 318.044C375.288 325.518 481.16 243.778 447.032 239.532Z" fill="#8530D1"/>
<path d="M226.719 244.635C221.22 229.22 205.522 215.154 206.612 183.658C207.037 171.375 210.123 158.145 204.097 147.433C201.706 143.182 198.078 139.793 194.855 136.131C178.515 117.565 167.843 82.0314 139.153 77.6073C120.842 74.7834 58.5646 93.3301 4.71802 125.643C-1.17369 129.178 -1.63358 137.541 3.84113 141.692C21.8979 155.388 52.2183 154.504 69.3586 171.305C74.5149 176.359 78.2819 182.882 84.2379 186.96C102.365 199.374 131.744 183.169 139.949 191.777C147.032 199.209 136.654 224.778 135.311 241.786C134.222 255.585 139.416 271.747 152.48 276.306C163.497 280.151 176.082 274.376 187.177 277.99C199.913 282.139 208.515 305.492 221.826 293.84C232.591 284.417 230.939 256.468 226.719 244.635Z" fill="#8530D1"/>
<path d="M184.664 67.5022C173.137 8.73559 215.149 -3.62605 225.501 1.57558C236.73 7.218 231.946 38.8214 246.862 50.2349C252.374 54.4509 259.557 55.5695 266.094 57.8936C289.774 66.3117 305.024 93.6014 299.79 118.193C295.532 138.198 279.866 154.735 277.537 175.056C276.31 185.757 277.182 188.164 293.357 276.557C294.976 285.405 284.713 291.493 277.734 285.822C272.59 281.643 268.091 277.754 266.535 275.355C257.529 261.477 254.234 246.22 252.275 230.021C245.244 171.85 196.674 128.728 184.664 67.5022Z" fill="#8530D1"/>
<path d="M327.676 157.224C289.613 160.938 266.884 161.223 228.975 157.246C227.248 157.064 225.933 155.609 225.933 153.872V89.2546C225.933 87.205 227.741 85.6263 229.773 85.8955C265.491 90.6306 290.071 90.6231 326.916 85.8783C328.943 85.6177 330.743 87.1954 330.743 89.2395V153.848C330.742 155.594 329.413 157.055 327.676 157.224Z" fill="#DAE6EA"/>
<path d="M332.968 152.976C294.904 156.69 272.176 156.974 234.266 152.998C232.539 152.816 231.224 151.361 231.224 149.624V85.0065C231.224 82.9569 233.033 81.3772 235.064 81.6474C270.782 86.3825 295.362 86.375 332.208 81.6303C334.235 81.3697 336.035 82.9473 336.035 84.9915V149.6C336.034 151.346 334.705 152.806 332.968 152.976Z" fill="#ECF9FF"/>
<path d="M253.188 95.9955H241.924C241.192 95.9955 240.599 95.4013 240.599 94.6698C240.599 93.9384 241.192 93.3442 241.924 93.3442H253.188C253.921 93.3442 254.513 93.9373 254.513 94.6698C254.513 95.4024 253.921 95.9955 253.188 95.9955Z" fill="#8530D1"/>
<path d="M276.116 95.9955H264.852C264.12 95.9955 263.527 95.4013 263.527 94.6698C263.527 93.9384 264.12 93.3442 264.852 93.3442H276.116C276.848 93.3442 277.441 93.9373 277.441 94.6698C277.441 95.4024 276.848 95.9955 276.116 95.9955Z" fill="#8530D1"/>
<path d="M299.045 95.9955H287.781C287.049 95.9955 286.456 95.4013 286.456 94.6698C286.456 93.9384 287.049 93.3442 287.781 93.3442H299.045C299.777 93.3442 300.37 93.9373 300.37 94.6698C300.37 95.4024 299.776 95.9955 299.045 95.9955Z" fill="#8530D1"/>
<path d="M321.973 95.9955H310.709C309.977 95.9955 309.384 95.4013 309.384 94.6698C309.384 93.9384 309.977 93.3442 310.709 93.3442H321.973C322.705 93.3442 323.298 93.9373 323.298 94.6698C323.298 95.4024 322.705 95.9955 321.973 95.9955Z" fill="#8530D1"/>
<path d="M253.188 107.879H241.924C241.192 107.879 240.599 107.286 240.599 106.553C240.599 105.821 241.192 105.228 241.924 105.228H253.188C253.921 105.228 254.513 105.822 254.513 106.553C254.513 107.285 253.921 107.879 253.188 107.879Z" fill="#8530D1"/>
<path d="M276.116 107.879H264.852C264.12 107.879 263.527 107.286 263.527 106.553C263.527 105.821 264.12 105.228 264.852 105.228H276.116C276.848 105.228 277.441 105.822 277.441 106.553C277.442 107.285 276.848 107.879 276.116 107.879Z" fill="#8530D1"/>
<path d="M299.045 107.879H287.781C287.049 107.879 286.456 107.286 286.456 106.553C286.456 105.821 287.049 105.228 287.781 105.228H299.045C299.777 105.228 300.37 105.822 300.37 106.553C300.37 107.285 299.776 107.879 299.045 107.879Z" fill="#8530D1"/>
<path d="M321.973 107.879H310.709C309.977 107.879 309.384 107.286 309.384 106.553C309.384 105.821 309.977 105.228 310.709 105.228H321.973C322.705 105.228 323.298 105.822 323.298 106.553C323.298 107.285 322.705 107.879 321.973 107.879Z" fill="#8530D1"/>
<path d="M253.188 120.062H241.924C241.192 120.062 240.599 119.469 240.599 118.737C240.599 118.004 241.192 117.411 241.924 117.411H253.188C253.921 117.411 254.513 118.004 254.513 118.737C254.513 119.468 253.921 120.062 253.188 120.062Z" fill="#8530D1"/>
<path d="M276.116 120.062H264.852C264.12 120.062 263.527 119.469 263.527 118.737C263.527 118.004 264.12 117.411 264.852 117.411H276.116C276.848 117.411 277.441 118.004 277.441 118.737C277.442 119.468 276.848 120.062 276.116 120.062Z" fill="#8530D1"/>
<path d="M299.045 120.062H287.781C287.049 120.062 286.456 119.469 286.456 118.737C286.456 118.004 287.049 117.411 287.781 117.411H299.045C299.777 117.411 300.37 118.004 300.37 118.737C300.37 119.468 299.776 120.062 299.045 120.062Z" fill="#8530D1"/>
<path d="M321.973 120.062H310.709C309.977 120.062 309.384 119.469 309.384 118.737C309.384 118.004 309.977 117.411 310.709 117.411H321.973C322.705 117.411 323.298 118.004 323.298 118.737C323.298 119.468 322.705 120.062 321.973 120.062Z" fill="#8530D1"/>
<path d="M253.188 131.773H241.924C241.192 131.773 240.599 131.179 240.599 130.447C240.599 129.715 241.192 129.122 241.924 129.122H253.188C253.921 129.122 254.513 129.715 254.513 130.447C254.513 131.18 253.921 131.773 253.188 131.773Z" fill="#8530D1"/>
<path d="M276.116 131.773H264.852C264.12 131.773 263.527 131.179 263.527 130.447C263.527 129.715 264.12 129.122 264.852 129.122H276.116C276.848 129.122 277.441 129.715 277.441 130.447C277.442 131.18 276.848 131.773 276.116 131.773Z" fill="#8530D1"/>
<path d="M299.045 131.773H287.781C287.049 131.773 286.456 131.179 286.456 130.447C286.456 129.715 287.049 129.122 287.781 129.122H299.045C299.777 129.122 300.37 129.715 300.37 130.447C300.37 131.18 299.776 131.773 299.045 131.773Z" fill="#8530D1"/>
<path d="M321.973 131.773H310.709C309.977 131.773 309.384 131.179 309.384 130.447C309.384 129.715 309.977 129.122 310.709 129.122H321.973C322.705 129.122 323.298 129.715 323.298 130.447C323.298 131.18 322.705 131.773 321.973 131.773Z" fill="#8530D1"/>
<path d="M253.188 142.08H241.924C241.192 142.08 240.599 141.487 240.599 140.754C240.599 140.022 241.192 139.429 241.924 139.429H253.188C253.921 139.429 254.513 140.022 254.513 140.754C254.513 141.486 253.921 142.08 253.188 142.08Z" fill="#8530D1"/>
<path d="M276.116 142.08H264.852C264.12 142.08 263.527 141.487 263.527 140.754C263.527 140.022 264.12 139.429 264.852 139.429H276.116C276.848 139.429 277.441 140.022 277.441 140.754C277.442 141.486 276.848 142.08 276.116 142.08Z" fill="#8530D1"/>
<path d="M299.045 142.08H287.781C287.049 142.08 286.456 141.487 286.456 140.754C286.456 140.022 287.049 139.429 287.781 139.429H299.045C299.777 139.429 300.37 140.022 300.37 140.754C300.37 141.486 299.776 142.08 299.045 142.08Z" fill="#8530D1"/>
<path d="M321.973 142.08H310.709C309.977 142.08 309.384 141.487 309.384 140.754C309.384 140.022 309.977 139.429 310.709 139.429H321.973C322.705 139.429 323.298 140.022 323.298 140.754C323.298 141.486 322.705 142.08 321.973 142.08Z" fill="#8530D1"/>
<path d="M374.977 204.249C330.428 201.955 299.296 200.748 256.734 204.133C254.764 204.29 253.076 202.731 253.076 200.754V125.966C253.076 123.966 254.797 122.394 256.787 122.592C290.559 125.962 329.239 124.681 374.979 122.381C376.915 122.283 378.544 123.827 378.544 125.767V200.861C378.544 202.804 376.914 204.349 374.977 204.249Z" fill="#EDF2F2"/>
<path d="M378.757 210.043C334.208 207.749 303.076 206.542 260.514 209.927C258.544 210.084 256.856 208.525 256.856 206.548V131.761C256.856 129.761 258.577 128.189 260.567 128.387C294.339 131.757 333.019 130.476 378.759 128.176C380.695 128.078 382.324 129.622 382.324 131.562V206.656C382.324 208.597 380.695 210.143 378.757 210.043Z" fill="#F7E018"/>
<path d="M278.922 164.178H280.407V171.884C280.407 174.943 278.904 175.882 276.923 175.882C276.377 175.882 275.711 175.763 275.335 175.609L275.557 174.396C275.864 174.516 276.308 174.618 276.803 174.618C278.136 174.618 278.921 174.019 278.921 171.764V164.178H278.922Z" fill="#444244"/>
<path d="M287.41 175.695L287.291 174.652H287.239C286.778 175.301 285.89 175.883 284.711 175.883C283.038 175.883 282.184 174.704 282.184 173.508C282.184 171.509 283.96 170.416 287.153 170.433V170.263C287.153 169.579 286.966 168.349 285.274 168.349C284.506 168.349 283.703 168.588 283.123 168.965L282.781 167.974C283.464 167.53 284.454 167.239 285.496 167.239C288.024 167.239 288.638 168.965 288.638 170.622V173.715C288.638 174.433 288.673 175.133 288.774 175.697H287.41V175.695ZM287.188 171.475C285.549 171.44 283.687 171.731 283.687 173.336C283.687 174.31 284.335 174.771 285.104 174.771C286.18 174.771 286.863 174.088 287.102 173.388C287.154 173.235 287.188 173.063 287.188 172.91V171.475Z" fill="#444244"/>
<path d="M291.508 167.425L293.131 172.072C293.404 172.824 293.626 173.507 293.797 174.19H293.848C294.036 173.507 294.275 172.823 294.548 172.072L296.153 167.425H297.725L294.48 175.695H293.045L289.903 167.425H291.508Z" fill="#444244"/>
<path d="M303.652 175.695L303.532 174.652H303.48C303.019 175.301 302.13 175.883 300.952 175.883C299.279 175.883 298.425 174.704 298.425 173.508C298.425 171.509 300.201 170.416 303.394 170.433V170.263C303.394 169.579 303.207 168.349 301.515 168.349C300.747 168.349 299.944 168.588 299.364 168.965L299.022 167.974C299.705 167.53 300.695 167.239 301.737 167.239C304.265 167.239 304.879 168.965 304.879 170.622V173.715C304.879 174.433 304.913 175.133 305.015 175.697H303.652V175.695ZM303.43 171.475C301.791 171.44 299.929 171.731 299.929 173.336C299.929 174.31 300.577 174.771 301.346 174.771C302.422 174.771 303.105 174.088 303.344 173.388C303.395 173.235 303.43 173.063 303.43 172.91V171.475Z" fill="#444244"/>
<path d="M310.773 173.883C311.439 174.293 312.412 174.635 313.437 174.635C314.957 174.635 315.845 173.832 315.845 172.67C315.845 171.594 315.229 170.979 313.676 170.381C311.797 169.715 310.636 168.741 310.636 167.117C310.636 165.323 312.121 163.991 314.359 163.991C315.537 163.991 316.391 164.264 316.904 164.555L316.494 165.768C316.119 165.563 315.35 165.221 314.308 165.221C312.737 165.221 312.14 166.16 312.14 166.947C312.14 168.023 312.84 168.552 314.428 169.168C316.375 169.92 317.366 170.859 317.366 172.55C317.366 174.327 316.05 175.865 313.335 175.865C312.225 175.865 311.013 175.54 310.398 175.131L310.773 173.883Z" fill="#444244"/>
<path d="M325.34 175.387C324.948 175.592 324.076 175.865 322.967 175.865C320.473 175.865 318.851 174.174 318.851 171.645C318.851 169.099 320.593 167.254 323.292 167.254C324.179 167.254 324.965 167.476 325.376 167.681L325.034 168.843C324.676 168.638 324.112 168.45 323.292 168.45C321.396 168.45 320.372 169.851 320.372 171.577C320.372 173.49 321.601 174.67 323.24 174.67C324.095 174.67 324.657 174.448 325.085 174.26L325.34 175.387Z" fill="#444244"/>
<path d="M327.099 170.005C327.099 169.032 327.082 168.194 327.031 167.425H328.346L328.398 169.049H328.466C328.842 167.938 329.747 167.237 330.755 167.237C330.925 167.237 331.046 167.254 331.182 167.289V168.707C331.028 168.672 330.874 168.655 330.669 168.655C329.61 168.655 328.859 169.458 328.654 170.586C328.62 170.79 328.585 171.03 328.585 171.286V175.694H327.099V170.005Z" fill="#444244"/>
<path d="M334.426 165.101C334.443 165.613 334.066 166.023 333.469 166.023C332.94 166.023 332.565 165.612 332.565 165.101C332.565 164.571 332.957 164.161 333.504 164.161C334.067 164.161 334.426 164.572 334.426 165.101ZM332.752 175.695V167.425H334.255V175.695H332.752Z" fill="#444244"/>
<path d="M336.749 170.124C336.749 169.065 336.714 168.211 336.68 167.425H338.03L338.098 168.843H338.133C338.747 167.835 339.721 167.237 341.07 167.237C343.068 167.237 344.571 168.929 344.571 171.44C344.571 174.413 342.76 175.883 340.814 175.883C339.72 175.883 338.764 175.404 338.269 174.584H338.234V179.078H336.749V170.124ZM338.234 172.328C338.234 172.55 338.269 172.755 338.303 172.943C338.576 173.985 339.481 174.703 340.557 174.703C342.145 174.703 343.068 173.404 343.068 171.508C343.068 169.851 342.196 168.432 340.609 168.432C339.584 168.432 338.628 169.167 338.337 170.294C338.286 170.482 338.234 170.704 338.234 170.91V172.328Z" fill="#444244"/>
<path d="M348.277 165.05V167.425H350.428V168.569H348.277V173.029C348.277 174.054 348.567 174.634 349.403 174.634C349.797 174.634 350.086 174.583 350.275 174.531L350.344 175.658C350.053 175.777 349.592 175.863 349.011 175.863C348.311 175.863 347.747 175.641 347.389 175.23C346.963 174.786 346.808 174.052 346.808 173.078V168.567H345.527V167.423H346.808V165.441L348.277 165.05Z" fill="#444244"/>
<path d="M283.007 224.998C254.031 228.325 235.558 228.687 208.805 225.057C207.122 224.828 205.862 223.393 205.862 221.694V175.199C205.862 173.215 207.563 171.656 209.54 171.821C237.659 174.177 255.594 175.081 282.225 171.972C284.241 171.737 286.016 173.308 286.016 175.338V221.628C286.017 223.352 284.719 224.802 283.007 224.998Z" fill="#808080"/>
<path d="M278.635 228.725C249.659 232.052 231.187 232.414 204.435 228.784C202.752 228.555 201.491 227.12 201.491 225.422V178.927C201.491 176.942 203.192 175.383 205.169 175.548C233.289 177.904 251.223 178.807 277.855 175.699C279.87 175.464 281.646 177.035 281.646 179.065V225.355C281.646 227.079 280.347 228.529 278.635 228.725Z" fill="#ECF9FF"/>
<path d="M226.514 196.591H209.643C208.186 196.591 207.004 195.409 207.004 193.952C207.004 192.495 208.186 191.314 209.643 191.314H226.514C227.971 191.314 229.151 192.496 229.151 193.952C229.151 195.41 227.971 196.591 226.514 196.591Z" fill="white"/>
<path d="M250.003 196.591H233.132C231.675 196.591 230.495 195.409 230.495 193.952C230.495 192.495 231.675 191.314 233.132 191.314H250.003C251.46 191.314 252.642 192.496 252.642 193.952C252.642 195.41 251.46 196.591 250.003 196.591Z" fill="white"/>
<path d="M273.494 196.591H256.623C255.166 196.591 253.985 195.409 253.985 193.952C253.985 192.495 255.166 191.314 256.623 191.314H273.494C274.951 191.314 276.131 192.496 276.131 193.952C276.131 195.41 274.951 196.591 273.494 196.591Z" fill="white"/>
<path d="M226.514 206.09H209.643C208.186 206.09 207.004 204.908 207.004 203.451C207.004 201.994 208.186 200.812 209.643 200.812H226.514C227.971 200.812 229.151 201.994 229.151 203.451C229.151 204.908 227.971 206.09 226.514 206.09Z" fill="white"/>
<path d="M250.003 206.09H233.132C231.675 206.09 230.495 204.908 230.495 203.451C230.495 201.994 231.675 200.812 233.132 200.812H250.003C251.46 200.812 252.642 201.994 252.642 203.451C252.642 204.908 251.46 206.09 250.003 206.09Z" fill="white"/>
<path d="M273.494 206.09H256.623C255.166 206.09 253.985 204.908 253.985 203.451C253.985 201.994 255.166 200.812 256.623 200.812H273.494C274.951 200.812 276.131 201.994 276.131 203.451C276.131 204.908 274.951 206.09 273.494 206.09Z" fill="white"/>
<path d="M226.514 215.588H209.643C208.186 215.588 207.004 214.406 207.004 212.949C207.004 211.492 208.186 210.311 209.643 210.311H226.514C227.971 210.311 229.151 211.493 229.151 212.949C229.151 214.407 227.971 215.588 226.514 215.588Z" fill="white"/>
<path d="M250.003 215.588H233.132C231.675 215.588 230.495 214.406 230.495 212.949C230.495 211.492 231.675 210.311 233.132 210.311H250.003C251.46 210.311 252.642 211.493 252.642 212.949C252.642 214.407 251.46 215.588 250.003 215.588Z" fill="white"/>
<path d="M273.494 215.588H256.623C255.166 215.588 253.985 214.406 253.985 212.949C253.985 211.492 255.166 210.311 256.623 210.311H273.494C274.951 210.311 276.131 211.493 276.131 212.949C276.131 214.407 274.951 215.588 273.494 215.588Z" fill="white"/>
<path d="M134.106 178.37C104.03 191.49 88.4637 175.375 59.9056 178.429C58.2172 178.609 56.9619 176.765 56.9619 175.066V128.571C56.9619 126.587 58.7779 124.509 60.6399 125.193C88.7306 135.522 107.564 122.106 133.326 125.344C135.339 125.597 137.116 126.679 137.116 128.71V175C137.115 176.723 135.685 177.68 134.106 178.37Z" fill="#808080"/>
<path d="M137.532 184.445C107.456 197.565 91.8899 181.451 63.3318 184.504C61.6434 184.685 60.3881 182.841 60.3881 181.142V134.646C60.3881 132.662 62.204 130.583 64.0661 131.268C92.1568 141.597 110.99 128.181 136.752 131.419C138.765 131.672 140.543 132.754 140.543 134.784V181.075C140.541 182.799 139.111 183.756 137.532 184.445Z" fill="#FFA500"/>
<path d="M102.135 145.286H67.5619C66.894 145.286 66.3538 144.744 66.3538 144.077C66.3538 143.409 66.8951 142.869 67.5619 142.869H102.135C102.803 142.869 103.343 143.41 103.343 144.077C103.344 144.746 102.803 145.286 102.135 145.286Z" fill="white"/>
<path d="M133.367 145.286H110.749C110.082 145.286 109.54 144.744 109.54 144.077C109.54 143.409 110.082 142.869 110.749 142.869H133.367C134.033 142.869 134.575 143.41 134.575 144.077C134.575 144.746 134.035 145.286 133.367 145.286Z" fill="white"/>
<path d="M98.7936 149.917H133.367C134.033 149.917 134.575 149.375 134.575 148.708C134.575 148.041 134.033 147.5 133.367 147.5H98.7936C98.1268 147.5 97.5854 148.041 97.5854 148.708C97.5854 149.375 98.1268 149.917 98.7936 149.917Z" fill="white"/>
<path d="M67.5619 149.917H90.18C90.8468 149.917 91.3882 149.375 91.3882 148.708C91.3882 148.041 90.8468 147.5 90.18 147.5H67.5619C66.894 147.5 66.3538 148.041 66.3538 148.708C66.3538 149.375 66.8951 149.917 67.5619 149.917Z" fill="white"/>
<path d="M102.135 154.547H67.5619C66.894 154.547 66.3538 154.006 66.3538 153.339C66.3538 152.671 66.8951 152.13 67.5619 152.13H102.135C102.803 152.13 103.343 152.671 103.343 153.339C103.344 154.006 102.803 154.547 102.135 154.547Z" fill="white"/>
<path d="M133.367 154.547H110.749C110.082 154.547 109.54 154.006 109.54 153.339C109.54 152.671 110.082 152.13 110.749 152.13H133.367C134.033 152.13 134.575 152.671 134.575 153.339C134.575 154.006 134.035 154.547 133.367 154.547Z" fill="white"/>
<path d="M98.7936 159.177H133.367C134.033 159.177 134.575 158.636 134.575 157.968C134.575 157.301 134.033 156.76 133.367 156.76H98.7936C98.1268 156.76 97.5854 157.301 97.5854 157.968C97.5854 158.637 98.1268 159.177 98.7936 159.177Z" fill="white"/>
<path d="M67.5619 159.177H90.18C90.8468 159.177 91.3882 158.636 91.3882 157.968C91.3882 157.301 90.8468 156.76 90.18 156.76H67.5619C66.894 156.76 66.3538 157.301 66.3538 157.968C66.3538 158.637 66.8951 159.177 67.5619 159.177Z" fill="white"/>
<path d="M102.135 163.808H67.5619C66.894 163.808 66.3538 163.266 66.3538 162.599C66.3538 161.931 66.8951 161.391 67.5619 161.391H102.135C102.803 161.391 103.343 161.932 103.343 162.599C103.344 163.266 102.803 163.808 102.135 163.808Z" fill="white"/>
<path d="M133.367 163.808H110.749C110.082 163.808 109.54 163.266 109.54 162.599C109.54 161.931 110.082 161.391 110.749 161.391H133.367C134.033 161.391 134.575 161.932 134.575 162.599C134.575 163.266 134.035 163.808 133.367 163.808Z" fill="white"/>
<path d="M98.7936 168.438H133.367C134.033 168.438 134.575 167.896 134.575 167.229C134.575 166.562 134.033 166.021 133.367 166.021H98.7936C98.1268 166.021 97.5854 166.562 97.5854 167.229C97.5854 167.896 98.1268 168.438 98.7936 168.438Z" fill="white"/>
<path d="M67.5619 168.438H90.18C90.8468 168.438 91.3882 167.896 91.3882 167.229C91.3882 166.562 90.8468 166.021 90.18 166.021H67.5619C66.894 166.021 66.3538 166.562 66.3538 167.229C66.3538 167.896 66.8951 168.438 67.5619 168.438Z" fill="white"/>
<path d="M102.135 173.069H67.5619C66.894 173.069 66.3538 172.528 66.3538 171.861C66.3538 171.193 66.8951 170.652 67.5619 170.652H102.135C102.803 170.652 103.343 171.193 103.343 171.861C103.344 172.528 102.803 173.069 102.135 173.069Z" fill="white"/>
<path d="M133.367 173.069H110.749C110.082 173.069 109.54 172.528 109.54 171.861C109.54 171.193 110.082 170.652 110.749 170.652H133.367C134.033 170.652 134.575 171.193 134.575 171.861C134.575 172.528 134.035 173.069 133.367 173.069Z" fill="white"/>
<path d="M98.7936 177.699H133.367C134.033 177.699 134.575 177.158 134.575 176.49C134.575 175.823 134.033 175.282 133.367 175.282H98.7936C98.1268 175.282 97.5854 175.823 97.5854 176.49C97.5854 177.158 98.1268 177.699 98.7936 177.699Z" fill="white"/>
<path d="M67.5619 177.699H90.18C90.8468 177.699 91.3882 177.158 91.3882 176.49C91.3882 175.823 90.8468 175.282 90.18 175.282H67.5619C66.894 175.282 66.3538 175.823 66.3538 176.49C66.3538 177.158 66.8951 177.699 67.5619 177.699Z" fill="white"/>
<path d="M398.926 158.262C369.668 162.608 350.167 151.623 318.669 158.293C317.04 158.638 315.809 156.609 315.809 154.942V116.478C315.809 114.409 317.647 112.826 319.692 113.124C350.021 117.537 363.615 107.774 397.865 113.235C399.937 113.565 401.823 114.477 401.823 116.576V154.907C401.824 156.587 400.588 158.014 398.926 158.262Z" fill="#808080"/>
<path d="M402.706 154.617C373.447 158.964 353.947 147.978 322.449 154.648C320.82 154.994 319.589 152.964 319.589 151.298V112.832C319.589 110.764 321.426 109.181 323.472 109.479C353.801 113.891 367.395 104.128 401.645 109.588C403.716 109.919 405.604 110.83 405.604 112.929V151.26C405.605 152.943 404.369 154.37 402.706 154.617Z" fill="#D3E7F1"/>
<path d="M331.011 121.715C332.009 121.715 332.819 120.906 332.819 119.907C332.819 118.908 332.009 118.099 331.011 118.099C330.013 118.099 329.204 118.908 329.204 119.907C329.204 120.906 330.013 121.715 331.011 121.715Z" fill="white"/>
<path d="M345.726 121.715H338.491C337.493 121.715 336.683 120.905 336.683 119.907C336.683 118.908 337.493 118.099 338.491 118.099H345.726C346.724 118.099 347.533 118.908 347.533 119.907C347.533 120.905 346.725 121.715 345.726 121.715Z" fill="white"/>
<path d="M394.182 121.715H386.948C385.95 121.715 385.141 120.905 385.141 119.907C385.141 118.908 385.95 118.099 386.948 118.099H394.182C395.18 118.099 395.99 118.908 395.99 119.907C395.99 120.905 395.181 121.715 394.182 121.715Z" fill="white"/>
<path d="M379.033 121.715H354.135C353.137 121.715 352.328 120.905 352.328 119.907C352.328 118.908 353.137 118.099 354.135 118.099H379.033C380.031 118.099 380.84 118.908 380.84 119.907C380.84 120.905 380.031 121.715 379.033 121.715Z" fill="white"/>
<path d="M331.011 127.648C332.009 127.648 332.819 126.839 332.819 125.84C332.819 124.841 332.009 124.032 331.011 124.032C330.013 124.032 329.204 124.841 329.204 125.84C329.204 126.839 330.013 127.648 331.011 127.648Z" fill="white"/>
<path d="M345.726 127.648H338.491C337.493 127.648 336.683 126.838 336.683 125.84C336.683 124.841 337.493 124.032 338.491 124.032H345.726C346.724 124.032 347.533 124.841 347.533 125.84C347.534 126.838 346.725 127.648 345.726 127.648Z" fill="white"/>
<path d="M394.182 127.648H386.948C385.95 127.648 385.141 126.838 385.141 125.84C385.141 124.841 385.95 124.032 386.948 124.032H394.182C395.18 124.032 395.99 124.841 395.99 125.84C395.991 126.838 395.181 127.648 394.182 127.648Z" fill="white"/>
<path d="M379.033 127.648H354.135C353.137 127.648 352.328 126.838 352.328 125.84C352.328 124.841 353.137 124.032 354.135 124.032H379.033C380.031 124.032 380.84 124.841 380.84 125.84C380.84 126.838 380.031 127.648 379.033 127.648Z" fill="white"/>
<path d="M331.011 133.581C332.009 133.581 332.819 132.772 332.819 131.773C332.819 130.774 332.009 129.965 331.011 129.965C330.013 129.965 329.204 130.774 329.204 131.773C329.204 132.772 330.013 133.581 331.011 133.581Z" fill="white"/>
<path d="M345.726 133.581H338.491C337.493 133.581 336.683 132.772 336.683 131.773C336.683 130.775 337.493 129.965 338.491 129.965H345.726C346.724 129.965 347.533 130.775 347.533 131.773C347.534 132.773 346.725 133.581 345.726 133.581Z" fill="white"/>
<path d="M394.182 133.581H386.948C385.95 133.581 385.141 132.772 385.141 131.773C385.141 130.775 385.95 129.965 386.948 129.965H394.182C395.18 129.965 395.99 130.775 395.99 131.773C395.991 132.773 395.181 133.581 394.182 133.581Z" fill="white"/>
<path d="M379.033 133.581H354.135C353.137 133.581 352.328 132.772 352.328 131.773C352.328 130.775 353.137 129.965 354.135 129.965H379.033C380.031 129.965 380.84 130.775 380.84 131.773C380.84 132.773 380.031 133.581 379.033 133.581Z" fill="white"/>
<path d="M331.011 139.514C332.009 139.514 332.819 138.705 332.819 137.706C332.819 136.708 332.009 135.898 331.011 135.898C330.013 135.898 329.204 136.708 329.204 137.706C329.204 138.705 330.013 139.514 331.011 139.514Z" fill="white"/>
<path d="M345.726 139.515H338.491C337.493 139.515 336.683 138.706 336.683 137.707C336.683 136.709 337.493 135.899 338.491 135.899H345.726C346.724 135.899 347.533 136.709 347.533 137.707C347.534 138.706 346.725 139.515 345.726 139.515Z" fill="white"/>
<path d="M394.182 139.515H386.948C385.95 139.515 385.141 138.706 385.141 137.707C385.141 136.709 385.95 135.899 386.948 135.899H394.182C395.18 135.899 395.99 136.709 395.99 137.707C395.991 138.706 395.181 139.515 394.182 139.515Z" fill="white"/>
<path d="M379.033 139.515H354.135C353.137 139.515 352.328 138.706 352.328 137.707C352.328 136.709 353.137 135.899 354.135 135.899H379.033C380.031 135.899 380.84 136.709 380.84 137.707C380.84 138.706 380.031 139.515 379.033 139.515Z" fill="white"/>
<path d="M331.011 145.449C332.009 145.449 332.819 144.639 332.819 143.64C332.819 142.642 332.009 141.832 331.011 141.832C330.013 141.832 329.204 142.642 329.204 143.64C329.204 144.639 330.013 145.449 331.011 145.449Z" fill="white"/>
<path d="M345.726 145.449H338.491C337.493 145.449 336.683 144.639 336.683 143.64C336.683 142.642 337.493 141.832 338.491 141.832H345.726C346.724 141.832 347.533 142.642 347.533 143.64C347.534 144.639 346.725 145.449 345.726 145.449Z" fill="white"/>
<path d="M394.182 145.449H386.948C385.95 145.449 385.141 144.639 385.141 143.64C385.141 142.642 385.95 141.832 386.948 141.832H394.182C395.18 141.832 395.99 142.642 395.99 143.64C395.991 144.639 395.181 145.449 394.182 145.449Z" fill="white"/>
<path d="M379.033 145.449H354.135C353.137 145.449 352.328 144.639 352.328 143.64C352.328 142.642 353.137 141.832 354.135 141.832H379.033C380.031 141.832 380.84 142.642 380.84 143.64C380.84 144.639 380.031 145.449 379.033 145.449Z" fill="white"/>
<path d="M421.121 231.301C390.288 228.276 371.741 229.582 343.415 231.445C341.46 231.573 339.798 230.021 339.798 228.062V192.601C339.798 190.567 341.581 188.992 343.599 189.235C373.606 192.856 394.211 194.364 420.846 189.537C422.928 189.159 424.849 190.752 424.849 192.868V227.928C424.849 229.933 423.115 231.497 421.121 231.301Z" fill="#9CD1F0"/>
<path d="M417.342 227.005C386.508 223.98 367.961 225.285 339.635 227.148C337.68 227.277 336.019 225.725 336.019 223.766V188.303C336.019 186.27 337.801 184.694 339.819 184.938C369.826 188.559 390.431 190.067 417.066 185.239C419.148 184.862 421.069 186.454 421.069 188.571V223.631C421.069 225.636 419.335 227.201 417.342 227.005Z" fill="#A9E2FF"/>
<path d="M355.343 199.881H345.278C344.369 199.881 343.633 199.144 343.633 198.235C343.633 197.325 344.369 196.588 345.278 196.588H355.343C356.253 196.588 356.989 197.325 356.989 198.235C356.988 199.144 356.251 199.881 355.343 199.881Z" fill="white"/>
<path d="M374.165 199.881H364.1C363.191 199.881 362.454 199.144 362.454 198.235C362.454 197.325 363.191 196.588 364.1 196.588H374.165C375.074 196.588 375.81 197.325 375.81 198.235C375.81 199.144 375.074 199.881 374.165 199.881Z" fill="white"/>
<path d="M392.987 199.881H382.922C382.013 199.881 381.276 199.144 381.276 198.235C381.276 197.325 382.013 196.588 382.922 196.588H392.987C393.896 196.588 394.632 197.325 394.632 198.235C394.632 199.144 393.896 199.881 392.987 199.881Z" fill="white"/>
<path d="M411.809 199.881H401.744C400.835 199.881 400.098 199.144 400.098 198.235C400.098 197.325 400.835 196.588 401.744 196.588H411.809C412.718 196.588 413.454 197.325 413.454 198.235C413.454 199.144 412.718 199.881 411.809 199.881Z" fill="white"/>
<path d="M355.343 207.68H345.278C344.369 207.68 343.633 206.943 343.633 206.034C343.633 205.125 344.369 204.388 345.278 204.388H355.343C356.253 204.388 356.989 205.125 356.989 206.034C356.988 206.943 356.251 207.68 355.343 207.68Z" fill="white"/>
<path d="M374.165 207.68H364.1C363.191 207.68 362.454 206.943 362.454 206.034C362.454 205.125 363.191 204.388 364.1 204.388H374.165C375.074 204.388 375.81 205.125 375.81 206.034C375.81 206.943 375.074 207.68 374.165 207.68Z" fill="white"/>
<path d="M392.987 207.68H382.922C382.013 207.68 381.276 206.943 381.276 206.034C381.276 205.125 382.013 204.388 382.922 204.388H392.987C393.896 204.388 394.632 205.125 394.632 206.034C394.632 206.943 393.896 207.68 392.987 207.68Z" fill="white"/>
<path d="M411.809 207.68H401.744C400.835 207.68 400.098 206.943 400.098 206.034C400.098 205.125 400.835 204.388 401.744 204.388H411.809C412.718 204.388 413.454 205.125 413.454 206.034C413.454 206.943 412.718 207.68 411.809 207.68Z" fill="white"/>
<path d="M355.343 215.481H345.278C344.369 215.481 343.633 214.744 343.633 213.834C343.633 212.925 344.369 212.188 345.278 212.188H355.343C356.253 212.188 356.989 212.925 356.989 213.834C356.988 214.743 356.251 215.481 355.343 215.481Z" fill="white"/>
<path d="M374.165 215.481H364.1C363.191 215.481 362.454 214.744 362.454 213.834C362.454 212.925 363.191 212.188 364.1 212.188H374.165C375.074 212.188 375.81 212.925 375.81 213.834C375.81 214.743 375.074 215.481 374.165 215.481Z" fill="white"/>
<path d="M392.987 215.481H382.922C382.013 215.481 381.276 214.744 381.276 213.834C381.276 212.925 382.013 212.188 382.922 212.188H392.987C393.896 212.188 394.632 212.925 394.632 213.834C394.632 214.743 393.896 215.481 392.987 215.481Z" fill="white"/>
<path d="M411.809 215.481H401.744C400.835 215.481 400.098 214.744 400.098 213.834C400.098 212.925 400.835 212.188 401.744 212.188H411.809C412.718 212.188 413.454 212.925 413.454 213.834C413.454 214.743 412.718 215.481 411.809 215.481Z" fill="white"/>
<path d="M151.122 210.837C116.779 227.574 101.741 209.117 73.416 210.98C71.4607 211.109 69.7991 209.557 69.7991 207.597V172.135C69.7991 170.102 71.5818 168.527 73.5993 168.77C103.607 172.391 121.966 184.588 150.847 169.071C152.711 168.07 154.849 170.286 154.849 172.403V207.463C154.85 209.468 152.924 209.958 151.122 210.837Z" fill="#A9E2FF"/>
<path d="M154.542 215.915C120.199 232.652 105.161 214.196 76.8357 216.058C74.8804 216.187 73.2188 214.635 73.2188 212.675V177.214C73.2188 175.18 75.0015 173.605 77.019 173.848C107.026 177.469 125.387 189.666 154.266 174.149C156.13 173.148 158.269 175.365 158.269 177.481V212.541C158.269 214.547 156.344 215.036 154.542 215.915Z" fill="#9CD1F0"/>
<path d="M98.2649 193.433H80.4644C79.417 193.433 78.568 192.584 78.568 191.536C78.568 190.488 79.417 189.639 80.4644 189.639H98.2649C99.3123 189.639 100.161 190.488 100.161 191.536C100.161 192.584 99.3123 193.433 98.2649 193.433Z" fill="white"/>
<path d="M138.342 193.433H106.139C105.091 193.433 104.242 192.584 104.242 191.536C104.242 190.488 105.091 189.639 106.139 189.639H138.342C139.389 189.639 140.238 190.488 140.238 191.536C140.238 192.584 139.389 193.433 138.342 193.433Z" fill="white"/>
<path d="M151.023 193.433H145.691C144.644 193.433 143.795 192.584 143.795 191.536C143.795 190.488 144.644 189.639 145.691 189.639H151.023C152.071 189.639 152.92 190.488 152.92 191.536C152.92 192.584 152.071 193.433 151.023 193.433Z" fill="white"/>
<path d="M133.223 200.305H151.023C152.071 200.305 152.92 199.455 152.92 198.408C152.92 197.36 152.071 196.51 151.023 196.51H133.223C132.175 196.51 131.326 197.36 131.326 198.408C131.326 199.455 132.175 200.305 133.223 200.305Z" fill="white"/>
<path d="M93.1461 200.305H125.349C126.396 200.305 127.245 199.455 127.245 198.408C127.245 197.36 126.396 196.51 125.349 196.51H93.1461C92.0988 196.51 91.2498 197.36 91.2498 198.408C91.2487 199.455 92.0988 200.305 93.1461 200.305Z" fill="white"/>
<path d="M80.4644 200.305H85.7965C86.8438 200.305 87.6929 199.455 87.6929 198.408C87.6929 197.36 86.8438 196.51 85.7965 196.51H80.4644C79.417 196.51 78.568 197.36 78.568 198.408C78.568 199.455 79.417 200.305 80.4644 200.305Z" fill="white"/>
<path d="M98.2649 207.176H80.4644C79.417 207.176 78.568 206.327 78.568 205.279C78.568 204.231 79.417 203.382 80.4644 203.382H98.2649C99.3123 203.382 100.161 204.231 100.161 205.279C100.161 206.327 99.3123 207.176 98.2649 207.176Z" fill="white"/>
<path d="M138.342 207.176H106.139C105.091 207.176 104.242 206.327 104.242 205.279C104.242 204.231 105.091 203.382 106.139 203.382H138.342C139.389 203.382 140.238 204.231 140.238 205.279C140.238 206.327 139.389 207.176 138.342 207.176Z" fill="white"/>
<path d="M151.023 207.176H145.691C144.644 207.176 143.795 206.327 143.795 205.279C143.795 204.231 144.644 203.382 145.691 203.382H151.023C152.071 203.382 152.92 204.231 152.92 205.279C152.92 206.327 152.071 207.176 151.023 207.176Z" fill="white"/>
<path d="M370.547 263.166C356.873 263.815 342.279 251.133 323.591 263.492C321.639 264.783 319.252 261.939 319.624 259.628C321.61 247.274 320.067 236.555 318.939 220.049C318.797 217.958 320.568 216.234 322.653 216.437C340.996 218.224 351.979 224.658 370.818 216.895C372.775 216.089 374.82 218.109 374.82 220.226V259.898C374.821 262.131 372.775 263.06 370.547 263.166Z" fill="#646464"/>
<path d="M372.515 265.219C358.841 265.868 344.247 253.185 325.559 265.545C323.607 266.836 321.221 263.993 321.593 261.681C323.578 249.326 322.035 238.608 320.908 222.101C320.765 220.011 322.536 218.286 324.621 218.489C342.964 220.276 353.947 226.71 372.786 218.947C374.743 218.14 376.788 220.161 376.788 222.278V261.95C376.789 264.184 374.745 265.114 372.515 265.219Z" fill="#4584B6"/>
<path d="M327.299 235.343C327.941 235.236 328.782 235.144 329.852 235.144C331.167 235.144 332.13 235.449 332.741 236C333.308 236.491 333.643 237.239 333.643 238.157C333.643 239.09 333.368 239.825 332.849 240.36C332.145 241.11 330.998 241.492 329.699 241.492C329.301 241.492 328.935 241.477 328.629 241.399V245.529H327.299V235.343ZM328.629 240.314C328.92 240.39 329.286 240.421 329.73 240.421C331.335 240.421 332.314 239.642 332.314 238.219C332.314 236.858 331.351 236.2 329.884 236.2C329.303 236.2 328.86 236.246 328.63 236.307V240.314H328.629Z" fill="#FFDE57"/>
<path d="M335.938 238.126L337.559 242.501C337.727 242.99 337.911 243.571 338.033 244.014H338.064C338.201 243.571 338.355 243.005 338.538 242.47L340.005 238.126H341.427L339.408 243.403C338.446 245.941 337.787 247.241 336.871 248.037C336.214 248.618 335.557 248.847 335.22 248.909L334.883 247.777C335.22 247.67 335.663 247.457 336.06 247.12C336.427 246.829 336.886 246.309 337.191 245.621C337.253 245.483 337.299 245.376 337.299 245.3C337.299 245.224 337.268 245.117 337.206 244.948L334.47 238.127L335.938 238.126Z" fill="#FFDE57"/>
<path d="M344.272 236V238.126H346.198V239.15H344.272V243.142C344.272 244.059 344.531 244.579 345.281 244.579C345.632 244.579 345.892 244.533 346.06 244.487L346.121 245.496C345.862 245.604 345.449 245.68 344.929 245.68C344.302 245.68 343.798 245.481 343.477 245.115C343.094 244.717 342.957 244.059 342.957 243.187V239.149H341.811V238.125H342.957V236.351L344.272 236Z" fill="#FFDE57"/>
<path d="M347.712 234.669H349.057V239.289H349.088C349.303 238.906 349.638 238.57 350.051 238.341C350.449 238.111 350.923 237.958 351.428 237.958C352.421 237.958 354.011 238.57 354.011 241.124V245.529H352.666V241.277C352.666 240.083 352.222 239.074 350.954 239.074C350.082 239.074 349.394 239.686 349.15 240.42C349.073 240.604 349.057 240.802 349.057 241.063V245.529H347.712V234.669Z" fill="#FFDE57"/>
<path d="M362.894 241.766C362.894 244.504 360.998 245.697 359.209 245.697C357.207 245.697 355.663 244.228 355.663 241.888C355.663 239.411 357.284 237.958 359.332 237.958C361.457 237.958 362.894 239.503 362.894 241.766ZM357.023 241.843C357.023 243.465 357.956 244.689 359.27 244.689C360.554 244.689 361.517 243.48 361.517 241.813C361.517 240.559 360.89 238.968 359.3 238.968C357.712 238.968 357.023 240.436 357.023 241.843Z" fill="#FFDE57"/>
<path d="M364.593 240.129C364.593 239.365 364.578 238.737 364.532 238.126H365.724L365.8 239.35H365.831C366.198 238.646 367.054 237.958 368.277 237.958C369.301 237.958 370.892 238.57 370.892 241.109V245.528H369.546V241.261C369.546 240.067 369.103 239.073 367.834 239.073C366.948 239.073 366.26 239.7 366.03 240.45C365.969 240.618 365.938 240.848 365.938 241.076V245.527H364.593V240.129Z" fill="#FFDE57"/>
<path d="M169.821 201.988C156.148 202.637 141.553 189.955 122.865 202.314C120.913 203.606 118.527 200.762 118.899 198.45C120.885 186.096 119.342 175.377 118.215 158.871C118.072 156.779 119.843 155.056 121.928 155.258C140.271 157.045 151.254 163.48 170.093 155.716C172.051 154.91 174.095 156.93 174.095 159.048V198.719C174.095 200.952 172.051 201.882 169.821 201.988Z" fill="#BBBBBB"/>
<path d="M167.359 205.386C153.685 206.035 139.091 193.352 120.403 205.712C118.451 207.003 116.064 204.16 116.436 201.848C118.422 189.493 116.879 178.775 115.751 162.268C115.609 160.177 117.38 158.453 119.465 158.656C137.808 160.443 148.791 166.877 167.631 159.114C169.587 158.307 171.633 160.328 171.633 162.445V202.117C171.633 204.351 169.588 205.28 167.359 205.386Z" fill="#777BB3"/>
<path d="M128.847 175.866C129.564 175.745 130.503 175.644 131.699 175.644C133.167 175.644 134.243 175.985 134.926 176.6C135.558 177.147 135.934 177.984 135.934 179.009C135.934 180.052 135.626 180.871 135.046 181.469C134.261 182.307 132.98 182.734 131.528 182.734C131.084 182.734 130.675 182.717 130.333 182.631V187.245H128.847V175.866ZM130.333 181.419C130.658 181.505 131.067 181.539 131.562 181.539C133.356 181.539 134.448 180.668 134.448 179.079C134.448 177.558 133.373 176.823 131.733 176.823C131.084 176.823 130.589 176.875 130.333 176.942V181.419Z" fill="white"/>
<path d="M139.418 175.729V180.547H144.986V175.729H146.489V187.246H144.986V181.847H139.418V187.246H137.932V175.729H139.418Z" fill="white"/>
<path d="M149.068 175.866C149.785 175.745 150.724 175.644 151.92 175.644C153.388 175.644 154.465 175.985 155.147 176.6C155.78 177.147 156.155 177.984 156.155 179.009C156.155 180.052 155.847 180.871 155.267 181.469C154.482 182.307 153.201 182.734 151.749 182.734C151.305 182.734 150.895 182.717 150.554 182.631V187.245H149.068V175.866ZM150.554 181.419C150.879 181.505 151.288 181.539 151.783 181.539C153.577 181.539 154.669 180.668 154.669 179.079C154.669 177.558 153.593 176.823 151.954 176.823C151.305 176.823 150.81 176.875 150.554 176.942V181.419Z" fill="white"/>
<path d="M311.614 244.7C313.349 237.351 308.8 229.986 301.453 228.25C294.107 226.515 286.745 231.066 285.011 238.416C283.276 245.765 287.825 253.131 295.171 254.866C302.518 256.601 309.879 252.05 311.614 244.7Z" fill="#ECF9FF"/>
<path d="M298.31 259.734C288.276 259.734 280.113 251.567 280.113 241.528C280.113 231.49 288.276 223.323 298.31 223.323C308.344 223.323 316.507 231.49 316.507 241.528C316.507 251.567 308.344 259.734 298.31 259.734ZM298.31 223.757C288.515 223.757 280.547 231.729 280.547 241.528C280.547 251.328 288.515 259.3 298.31 259.3C308.105 259.3 316.073 251.328 316.073 241.528C316.073 231.729 308.105 223.757 298.31 223.757Z" fill="#ECF9FF"/>
<path d="M382.324 276.399C397.995 276.399 410.699 270.239 410.699 262.642C410.699 255.044 397.995 248.885 382.324 248.885C366.652 248.885 353.948 255.044 353.948 262.642C353.948 270.239 366.652 276.399 382.324 276.399Z" fill="#ECF9FF"/>
<path d="M382.324 277.853C365.149 277.853 351.177 271.029 351.177 262.641C351.177 254.253 365.149 247.428 382.324 247.428C399.498 247.428 413.471 254.253 413.471 262.641C413.471 271.03 399.498 277.853 382.324 277.853ZM382.324 247.864C365.389 247.864 351.612 254.493 351.612 262.642C351.612 270.789 365.389 277.419 382.324 277.419C399.258 277.419 413.036 270.789 413.036 262.642C413.035 254.493 399.258 247.864 382.324 247.864Z" fill="#ECF9FF"/>
<path d="M281.646 70.52C285.879 70.52 289.311 67.0863 289.311 62.8506C289.311 58.6149 285.879 55.1812 281.646 55.1812C277.412 55.1812 273.98 58.6149 273.98 62.8506C273.98 67.0863 277.412 70.52 281.646 70.52Z" fill="#ECF9FF"/>
<path d="M281.646 72.9207C276.096 72.9207 271.581 68.4033 271.581 62.851C271.581 57.2986 276.096 52.7812 281.646 52.7812C287.195 52.7812 291.711 57.2986 291.711 62.851C291.711 68.4033 287.195 72.9207 281.646 72.9207ZM281.646 53.2156C276.335 53.2156 272.015 57.5378 272.015 62.851C272.015 68.1641 276.335 72.4863 281.646 72.4863C286.956 72.4863 291.277 68.1641 291.277 62.851C291.277 57.5378 286.956 53.2156 281.646 53.2156Z" fill="#ECF9FF"/>
<path d="M281.646 74.2343C275.371 74.2343 270.267 69.1271 270.267 62.8508C270.267 56.5735 275.372 51.4673 281.646 51.4673C287.92 51.4673 293.024 56.5745 293.024 62.8508C293.024 69.1271 287.919 74.2343 281.646 74.2343ZM281.646 51.9016C275.611 51.9016 270.702 56.8137 270.702 62.8508C270.702 68.8879 275.611 73.7999 281.646 73.7999C287.68 73.7999 292.59 68.8879 292.59 62.8508C292.59 56.8126 287.68 51.9016 281.646 51.9016Z" fill="#ECF9FF"/>
<path d="M97.0386 247.786C101.272 247.786 104.704 244.352 104.704 240.117C104.704 235.881 101.272 232.447 97.0386 232.447C92.8048 232.447 89.3727 235.881 89.3727 240.117C89.3727 244.352 92.8048 247.786 97.0386 247.786Z" fill="#ECF9FF"/>
<path d="M97.0386 250.188C91.4889 250.188 86.9736 245.67 86.9736 240.118C86.9736 234.566 91.4889 230.048 97.0386 230.048C102.588 230.048 107.104 234.566 107.104 240.118C107.104 245.67 102.588 250.188 97.0386 250.188ZM97.0386 230.483C91.728 230.483 87.4078 234.805 87.4078 240.118C87.4078 245.431 91.728 249.753 97.0386 249.753C102.349 249.753 106.669 245.431 106.669 240.118C106.669 234.805 102.349 230.483 97.0386 230.483Z" fill="#ECF9FF"/>
<path d="M97.0386 251.501C90.7642 251.501 85.6604 246.394 85.6604 240.118C85.6604 233.841 90.7653 228.734 97.0386 228.734C103.313 228.734 108.417 233.842 108.417 240.118C108.417 246.394 103.313 251.501 97.0386 251.501ZM97.0386 229.168C91.0043 229.168 86.0946 234.08 86.0946 240.117C86.0946 246.154 91.0043 251.066 97.0386 251.066C103.073 251.066 107.983 246.154 107.983 240.117C107.983 234.08 103.073 229.168 97.0386 229.168Z" fill="#ECF9FF"/>
<path d="M162.293 115.022H111.938C110.067 115.022 108.549 113.505 108.549 111.631V95.1779C108.549 93.3053 110.066 91.7866 111.938 91.7866H162.293C164.165 91.7866 165.683 93.3053 165.683 95.1779V111.631C165.682 113.505 164.165 115.022 162.293 115.022Z" fill="#8B0000"/>
<path d="M161.2 116.899H110.845C108.973 116.899 107.455 115.382 107.455 113.508V97.0548C107.455 95.1822 108.973 93.6636 110.845 93.6636H161.2C163.072 93.6636 164.59 95.1812 164.59 97.0548V113.508C164.59 115.381 163.072 116.899 161.2 116.899Z" fill="#5CED73"/>
<path d="M118.655 112.95C122.888 112.95 126.32 109.516 126.32 105.281C126.32 101.045 122.888 97.6113 118.655 97.6113C114.421 97.6113 110.989 101.045 110.989 105.281C110.989 109.516 114.421 112.95 118.655 112.95Z" fill="white"/>
<path d="M136.023 112.95C140.257 112.95 143.689 109.516 143.689 105.281C143.689 101.045 140.257 97.6113 136.023 97.6113C131.789 97.6113 128.357 101.045 128.357 105.281C128.357 109.516 131.789 112.95 136.023 112.95Z" fill="white"/>
<path d="M153.392 112.95C157.625 112.95 161.057 109.516 161.057 105.281C161.057 101.045 157.625 97.6113 153.392 97.6113C149.158 97.6113 145.726 101.045 145.726 105.281C145.726 109.516 149.158 112.95 153.392 112.95Z" fill="white"/>
<path opacity="0.5" d="M194.683 312.523C95.7641 312.523 94.9794 291.628 194.683 291.628C293.602 291.628 294.387 312.523 194.683 312.523Z" fill="#E0DFEA"/>
<path d="M197.245 261.525C218.062 268.078 208.568 294.554 188.783 292.24C177.74 290.949 123.931 271.913 118.146 263.853C116.159 261.084 115.809 257.124 117.59 254.218C120.261 249.858 124.63 250.7 128.802 251.341C129.427 251.437 180.454 256.24 197.245 261.525Z" fill="#514342"/>
<path d="M191.196 292.601C190.403 292.601 189.591 292.554 188.758 292.457C177.337 291.122 123.693 271.955 117.971 263.981C115.869 261.053 115.637 256.99 117.406 254.104C120.063 249.766 124.311 250.426 128.419 251.063L128.836 251.127C128.887 251.135 129.361 251.182 130.078 251.255C149.454 253.208 183.954 257.114 197.31 261.318C207.864 264.64 210.114 272.814 208.834 278.804C207.342 285.791 200.758 292.601 191.196 292.601ZM124.044 251.04C121.607 251.04 119.369 251.731 117.776 254.332C116.097 257.073 116.322 260.936 118.324 263.727C124.006 271.645 177.428 290.694 188.808 292.025C199.426 293.268 206.833 286.093 208.41 278.713C209.711 272.623 207.444 264.964 197.181 261.733C183.861 257.541 149.394 253.64 130.034 251.688C129.177 251.601 128.828 251.566 128.77 251.557L128.353 251.493C126.907 251.268 125.442 251.04 124.044 251.04Z" fill="#463C3A"/>
<path d="M192.296 260.297C171.478 266.85 180.972 293.326 200.758 291.012C211.801 289.721 265.61 270.685 271.394 262.625C273.382 259.856 273.732 255.896 271.951 252.99C269.279 248.63 264.911 249.472 260.738 250.113C260.115 250.21 209.087 255.012 192.296 260.297Z" fill="#514342"/>
<path d="M198.346 291.373C188.783 291.373 182.199 284.565 180.706 277.576C179.426 271.586 181.676 263.413 192.23 260.09C205.586 255.886 240.087 251.98 259.464 250.027C260.181 249.954 260.656 249.907 260.705 249.899L261.121 249.835C265.229 249.198 269.476 248.539 272.135 252.876C273.904 255.763 273.671 259.824 271.57 262.753C265.848 270.727 212.204 289.894 200.783 291.229C199.952 291.326 199.137 291.373 198.346 291.373ZM192.361 260.504C182.097 263.736 179.83 271.394 181.132 277.484C182.709 284.864 190.117 292.041 200.733 290.796C212.115 289.466 265.536 270.416 271.217 262.498C273.22 259.707 273.445 255.844 271.765 253.103C269.259 249.011 265.156 249.648 261.189 250.263L260.772 250.327C260.714 250.336 260.364 250.371 259.508 250.458C240.148 252.41 205.681 256.312 192.361 260.504Z" fill="#463C3A"/>
<path d="M226.029 285.654C201.147 292.071 186.587 292.161 162.419 285.654C164.263 265.787 164.138 253.224 169.141 234.781L218.672 237.013C224.552 255.785 224.623 267.176 226.029 285.654Z" fill="#514342"/>
<path d="M193.826 290.748C184.073 290.748 174.456 289.119 162.362 285.864L162.185 285.817L162.202 285.635C162.63 281.033 162.948 276.867 163.256 272.839C164.277 259.472 165.084 248.914 168.932 234.726L168.978 234.557L169.152 234.565L218.835 236.803L218.88 236.948C223.961 253.17 224.701 263.753 225.725 278.4C225.886 280.704 226.054 283.104 226.247 285.637L226.261 285.818L226.085 285.863C213.463 289.12 203.577 290.748 193.826 290.748ZM162.653 285.492C186.588 291.918 200.81 291.917 225.799 285.489C225.611 283.022 225.448 280.681 225.291 278.431C224.272 263.857 223.536 253.315 218.51 237.223L169.305 235.007C165.506 249.07 164.703 259.58 163.688 272.871C163.386 276.848 163.072 280.958 162.653 285.492Z" fill="#463C3A"/>
<path d="M197.275 270.535C197.171 270.535 197.08 270.461 197.061 270.355C195.012 258.56 192.69 245.193 195.571 232.64C195.597 232.523 195.714 232.45 195.831 232.477C195.948 232.504 196.021 232.621 195.994 232.738C193.133 245.205 195.447 258.526 197.488 270.28C197.509 270.399 197.429 270.51 197.311 270.531C197.3 270.534 197.288 270.535 197.275 270.535Z" fill="#323D4E"/>
<path d="M195.424 258.984C195.374 258.984 195.324 258.967 195.283 258.933C188.033 252.795 188.236 250.764 190.175 231.335C190.187 231.216 190.294 231.127 190.413 231.141C190.532 231.153 190.62 231.259 190.608 231.379C188.69 250.602 188.49 252.61 195.565 258.601C195.656 258.679 195.668 258.816 195.591 258.908C195.547 258.959 195.485 258.984 195.424 258.984Z" fill="#323D4E"/>
<path d="M165.791 250.622C165.7 250.622 165.616 250.565 165.586 250.474C165.548 250.36 165.609 250.237 165.723 250.198C172.825 247.823 174.303 247.328 177.779 232.602C177.806 232.485 177.923 232.411 178.04 232.441C178.157 232.469 178.23 232.586 178.202 232.702C174.671 247.665 173.153 248.172 165.861 250.611C165.838 250.619 165.814 250.622 165.791 250.622Z" fill="#323D4E"/>
<path d="M165.791 250.622C165.7 250.622 165.616 250.565 165.586 250.474C165.548 250.36 165.609 250.237 165.723 250.198C172.825 247.823 174.303 247.328 177.779 232.602C177.806 232.485 177.923 232.411 178.04 232.441C178.157 232.469 178.23 232.586 178.202 232.702C174.671 247.665 173.153 248.172 165.861 250.611C165.838 250.619 165.814 250.622 165.791 250.622Z" fill="#323D4E"/>
<path d="M222.29 251.037C222.268 251.037 222.244 251.034 222.222 251.027L221.943 250.933C214.895 248.578 213.429 248.089 209.952 233.36C209.925 233.243 209.997 233.127 210.114 233.099C210.23 233.07 210.348 233.143 210.376 233.26C213.796 247.752 215.061 248.175 222.08 250.52L222.36 250.614C222.473 250.652 222.535 250.775 222.497 250.889C222.466 250.98 222.381 251.037 222.29 251.037Z" fill="#323D4E"/>
<path d="M205.051 289.351C204.136 293.216 204.304 297.332 205.53 301.11C190.569 301.978 156.504 309.266 155.586 303.402C155.396 302.187 155.203 302.677 180.981 289.201C185.358 286.913 187.79 288.117 188.423 292.563C188.657 294.21 203.48 289.887 205.051 289.351Z" fill="#FFFFF6"/>
<path d="M163.186 305.878C158.648 305.878 155.65 305.224 155.37 303.435C155.198 302.345 155.198 302.345 166.949 296.255C170.44 294.445 174.98 292.093 180.88 289.008C183.173 287.81 185 287.543 186.311 288.214C187.537 288.844 188.319 290.296 188.638 292.532C188.639 292.538 188.642 292.559 188.691 292.59C190.109 293.461 202.773 289.898 204.981 289.144L205.353 289.017L205.261 289.4C204.35 293.252 204.514 297.277 205.735 301.041L205.822 301.309L205.541 301.325C200.963 301.59 194.625 302.454 187.915 303.369C178.8 304.612 169.501 305.878 163.186 305.878ZM184.699 288.287C183.701 288.287 182.491 288.657 181.081 289.394C175.181 292.478 170.64 294.831 167.15 296.641C155.89 302.476 155.678 302.601 155.795 303.333C156.404 307.224 173.116 304.947 187.86 302.938C194.443 302.042 200.668 301.194 205.24 300.909C204.109 297.268 203.943 293.399 204.756 289.675C202.283 290.444 190.102 293.964 188.466 292.962C188.281 292.848 188.224 292.699 188.209 292.595C187.912 290.507 187.207 289.164 186.113 288.603C185.703 288.392 185.231 288.287 184.699 288.287Z" fill="black"/>
<path d="M166.426 303.699C166.307 303.699 166.209 303.602 166.208 303.482C166.207 303.362 166.305 303.264 166.425 303.263C173.01 303.231 179.612 302.509 186.047 301.118C186.165 301.093 186.279 301.168 186.305 301.285C186.33 301.401 186.256 301.517 186.138 301.543C179.674 302.941 173.041 303.667 166.427 303.699H166.426Z" fill="black"/>
<path d="M273.086 280.924C294.001 271.388 280.665 244.938 260.282 249.908C248.906 252.681 195.109 279.522 190.103 288.694C188.383 291.846 188.527 296.03 190.764 298.839C194.118 303.051 198.576 301.608 202.855 300.399C203.494 300.218 256.216 288.616 273.086 280.924Z" fill="#514342"/>
<path d="M196.514 301.874C194.372 301.874 192.343 301.17 190.593 298.974C188.375 296.187 188.095 291.918 189.912 288.59C194.865 279.517 248.465 252.565 260.23 249.696C271.426 246.965 280.299 253.673 282.963 261.371C285.072 267.462 283.774 276.29 273.177 281.122C259.767 287.235 224.212 295.769 204.212 300.311C203.461 300.482 202.965 300.594 202.914 300.609L202.486 300.73C200.486 301.297 198.453 301.874 196.514 301.874ZM265.265 249.511C263.685 249.511 262.038 249.703 260.333 250.119C248.607 252.978 195.213 279.787 190.294 288.798C188.558 291.977 188.821 296.05 190.933 298.702C194.086 302.662 198.295 301.466 202.366 300.31L202.795 300.189C202.854 300.172 203.219 300.089 204.115 299.885C224.1 295.346 259.621 286.822 272.996 280.725C283.316 276.02 284.699 267.716 282.553 261.512C280.356 255.167 273.832 249.511 265.265 249.511Z" fill="#463C3A"/>
<path d="M186.081 288.71C187.013 292.571 186.863 296.688 185.652 300.47C200.619 301.275 234.713 308.42 235.606 302.552C235.792 301.337 235.986 301.825 210.152 288.458C205.765 286.189 203.338 287.403 202.724 291.852C202.496 293.499 187.655 289.239 186.081 288.71Z" fill="#FFFFF6"/>
<path d="M227.762 305.054C221.453 305.054 212.277 303.843 203.276 302.656C196.562 301.77 190.22 300.934 185.64 300.687L185.359 300.672L185.444 300.404C186.65 296.634 186.797 292.608 185.869 288.761L185.777 288.378L186.15 288.503C188.361 289.247 201.044 292.753 202.454 291.88C202.503 291.849 202.506 291.828 202.507 291.822C202.816 289.585 203.593 288.128 204.817 287.494C206.125 286.815 207.953 287.075 210.25 288.264C216.164 291.324 220.713 293.658 224.211 295.452C235.989 301.494 235.989 301.494 235.825 302.55C235.546 304.388 232.443 305.054 227.762 305.054ZM185.943 300.269C190.516 300.534 196.745 301.356 203.334 302.225C218.085 304.171 234.805 306.377 235.392 302.519C235.51 301.751 235.298 301.627 224.014 295.839C220.516 294.045 215.965 291.711 210.052 288.651C207.887 287.531 206.193 287.272 205.018 287.881C203.927 288.447 203.228 289.793 202.939 291.882C202.926 291.987 202.869 292.135 202.684 292.25C201.054 293.259 188.857 289.789 186.38 289.031C187.208 292.753 187.058 296.623 185.943 300.269Z" fill="black"/>
<path d="M224.765 302.894C218.151 302.89 211.516 302.193 205.045 300.822C204.928 300.798 204.852 300.682 204.878 300.565C204.902 300.447 205.017 300.374 205.135 300.397C211.576 301.762 218.182 302.456 224.765 302.461C224.885 302.461 224.982 302.559 224.982 302.679C224.983 302.797 224.885 302.894 224.765 302.894Z" fill="black"/>
<path d="M118.049 282.359C97.0999 272.896 110.343 246.4 130.745 251.299C142.13 254.033 196.02 280.685 201.058 289.84C202.789 292.985 202.66 297.17 200.433 299.987C197.094 304.211 192.63 302.783 188.349 301.589C187.709 301.41 134.947 289.991 118.049 282.359Z" fill="#514342"/>
<path d="M194.66 303.041C192.731 303.041 190.709 302.475 188.718 301.917L188.291 301.797C188.239 301.783 187.746 301.673 187 301.506C166.982 297.034 131.395 288.626 117.96 282.558C107.346 277.763 106.017 268.941 108.104 262.842C110.741 255.136 119.59 248.398 130.795 251.088C142.57 253.915 196.264 280.68 201.249 289.735C203.078 293.056 202.813 297.328 200.605 300.121C198.854 302.334 196.815 303.041 194.66 303.041ZM125.828 250.92C117.228 250.92 110.695 256.612 108.516 262.982C106.391 269.192 107.803 277.492 118.139 282.161C131.54 288.214 167.094 296.614 187.095 301.082C187.985 301.281 188.348 301.362 188.407 301.379L188.836 301.499C192.911 302.64 197.125 303.821 200.264 299.851C202.366 297.191 202.615 293.117 200.868 289.944C195.918 280.95 142.43 254.328 130.694 251.511C129.013 251.106 127.387 250.92 125.828 250.92Z" fill="#463C3A"/>
<path d="M185.413 160.387C185.503 167.787 187.954 173.275 174.349 179.68C182.447 190.827 190.423 194.945 190.423 194.945C190.423 194.945 207.485 187.261 213.348 182.177C210.297 179.956 207.113 178.297 204.299 176.319C198.74 172.412 202.02 163.73 200.935 160.524L185.413 160.387Z" fill="#F9A587"/>
<path d="M202.489 174.487C200.992 172.288 200.898 169.758 200.991 166.252C193.848 171.303 190.414 168.983 185.909 165.671C192.372 175.007 196.176 171.57 202.489 174.487Z" fill="#EA795C"/>
<path d="M198.818 168.339C202.711 167.096 209.033 155.779 206.659 141.837C204.266 127.782 188.639 126.1 182.439 135.582C176.471 144.707 180.331 174.239 198.818 168.339Z" fill="#F9A587"/>
<path d="M187.954 139.693C190.52 139.174 193.56 135.712 196.267 137.435C201.023 140.46 206.048 142.722 206.287 155.871C209.125 144.681 208.472 147.272 210.836 145.214C214.559 141.974 209.263 136.205 208.386 133.358C207.537 130.606 208.306 126.968 202.398 125.025C200.525 124.409 200.086 124.813 198.777 125.179C191.912 127.101 184.419 117.355 179.213 128.198C178.066 130.587 178.634 130.816 179.014 132.57C179.85 136.436 176.113 139.817 175.619 143.741C175.407 145.42 180.869 155.554 180.869 155.554C180.869 155.554 180.84 150.928 180.97 149.976C182.543 138.406 185.745 140.14 187.954 139.693Z" fill="#30323E"/>
<path d="M208.519 148.034C205.81 147.358 205.875 152.972 205.983 155.755C206.196 161.241 212.786 149.099 208.519 148.034Z" fill="#F9A587"/>
<path d="M178.642 149.195C181.285 148.298 181.686 153.896 181.808 156.679C182.048 162.165 174.478 150.61 178.642 149.195Z" fill="#F9A587"/>
<path d="M196.658 145.84C196.861 145.945 203.621 146.445 203.728 146.41C205.363 145.868 199.588 143.558 196.747 144.801C196.385 144.959 196.288 145.648 196.658 145.84Z" fill="#30323E"/>
<path d="M190.128 144.596C187.242 143.46 181.862 146.065 183.23 146.532C185.037 146.533 192.687 145.604 190.128 144.596Z" fill="#30323E"/>
<path d="M193.572 157.154C193.391 157.154 193.183 157.12 192.933 157.03C192.018 156.699 192.286 155.418 192.625 153.798C192.846 152.742 193.095 151.547 193.043 150.461C193.037 150.341 193.13 150.239 193.25 150.234C193.361 150.222 193.47 150.321 193.477 150.441C193.532 151.582 193.275 152.807 193.05 153.887C192.766 155.246 192.522 156.419 193.082 156.622C193.557 156.793 193.793 156.711 194.121 156.597C194.356 156.516 194.622 156.423 194.999 156.423C195.119 156.423 195.217 156.521 195.217 156.641C195.217 156.761 195.119 156.859 194.999 156.859C194.696 156.859 194.486 156.932 194.264 157.009C194.055 157.08 193.841 157.154 193.572 157.154Z" fill="#EA795C"/>
<path d="M196.453 160.767C196.63 160.664 196.932 160.739 196.912 160.943C196.757 162.459 195.75 164.116 194.999 164.569C192.774 165.909 190.377 161.304 191.993 161.32C192.827 161.33 194.778 161.737 196.453 160.767Z" fill="white"/>
<path d="M207.278 154.715C207.237 154.715 207.196 154.704 207.16 154.681C207.059 154.615 207.03 154.481 207.095 154.38C207.826 153.242 207.998 151.744 207.545 150.47C207.504 150.357 207.563 150.233 207.677 150.192C207.79 150.151 207.914 150.21 207.954 150.324C208.453 151.723 208.263 153.367 207.46 154.615C207.419 154.681 207.35 154.715 207.278 154.715Z" fill="#EA795C"/>
<path d="M180.469 155.755C180.41 155.755 180.35 155.73 180.307 155.683C179.317 154.577 178.869 152.985 179.139 151.525C179.16 151.406 179.274 151.328 179.392 151.35C179.51 151.372 179.588 151.485 179.566 151.603C179.319 152.933 179.727 154.385 180.63 155.392C180.71 155.481 180.703 155.62 180.614 155.699C180.573 155.737 180.522 155.755 180.469 155.755Z" fill="#EA795C"/>
<path d="M195 135.635C194.968 135.635 194.936 135.628 194.905 135.613C194.797 135.56 194.753 135.429 194.805 135.322C195.93 133.027 196.289 130.132 195.872 126.719C195.857 126.6 195.941 126.492 196.061 126.477C196.18 126.459 196.289 126.547 196.304 126.667C196.731 130.165 196.358 133.143 195.195 135.514C195.159 135.59 195.082 135.635 195 135.635Z" fill="#353B4A"/>
<path d="M203.514 127.657C203.467 127.657 203.42 127.642 203.38 127.609C200.935 125.682 198.698 126.773 197.582 127.595C197.485 127.666 197.349 127.646 197.278 127.549C197.206 127.453 197.228 127.317 197.324 127.246C199.392 125.723 201.697 125.73 203.649 127.269C203.743 127.343 203.76 127.481 203.686 127.575C203.643 127.629 203.578 127.657 203.514 127.657Z" fill="#353B4A"/>
<path d="M201.783 131.758C201.069 131.758 198.783 131.649 197.545 130.318C197.464 130.23 197.468 130.093 197.556 130.01C197.644 129.929 197.781 129.934 197.863 130.021C199.175 131.43 201.95 131.321 201.978 131.319C202.109 131.314 202.2 131.406 202.205 131.526C202.21 131.646 202.118 131.748 201.998 131.753C201.98 131.755 201.904 131.758 201.783 131.758Z" fill="#353B4A"/>
<path d="M202.018 139.61C201.974 139.61 201.93 139.596 201.891 139.569C200.219 138.365 199.602 137.202 199.108 136.267C198.554 135.218 198.187 134.525 196.664 134.256C196.546 134.235 196.467 134.123 196.488 134.004C196.508 133.886 196.621 133.806 196.74 133.828C198.472 134.134 198.923 134.985 199.493 136.063C199.967 136.958 200.555 138.073 202.146 139.216C202.244 139.286 202.266 139.422 202.195 139.519C202.152 139.578 202.085 139.61 202.018 139.61Z" fill="#353B4A"/>
<path d="M193.699 126.918C192.384 126.918 191.044 126.463 189.821 126.048C188.008 125.432 186.442 124.9 185.507 125.959C185.427 126.049 185.29 126.058 185.2 125.978C185.11 125.899 185.101 125.762 185.181 125.672C186.306 124.395 188.081 124.998 189.961 125.636C191.591 126.19 193.438 126.816 195.066 126.273C195.18 126.235 195.302 126.297 195.341 126.411C195.379 126.524 195.317 126.648 195.204 126.686C194.712 126.849 194.207 126.918 193.699 126.918Z" fill="#353B4A"/>
<path d="M191.185 131.021C191.142 131.021 191.098 131.008 191.061 130.983C190.962 130.914 190.938 130.778 191.007 130.68C191.879 129.432 193.521 129.856 194.681 130.284C194.793 130.326 194.851 130.451 194.809 130.563C194.768 130.676 194.643 130.734 194.53 130.692C192.88 130.083 191.902 130.156 191.363 130.929C191.321 130.988 191.254 131.021 191.185 131.021Z" fill="#353B4A"/>
<path d="M187.396 137.551C187.327 137.551 187.259 137.517 187.217 137.456C187.15 137.358 187.175 137.221 187.274 137.154C188.763 136.133 189.51 136.066 190.169 136.007C190.969 135.935 191.662 135.873 193.706 133.909C193.793 133.827 193.93 133.829 194.014 133.916C194.098 134.003 194.094 134.14 194.007 134.224C191.853 136.293 191.054 136.364 190.207 136.441C189.572 136.497 188.914 136.556 187.52 137.513C187.482 137.539 187.439 137.551 187.396 137.551Z" fill="#353B4A"/>
<path d="M180.455 148.912C180.365 148.912 180.281 148.855 180.249 148.765C179.962 147.921 179.213 147.261 178.339 147.084C178.221 147.061 178.145 146.946 178.169 146.828C178.192 146.71 178.307 146.633 178.425 146.657C179.448 146.864 180.325 147.637 180.66 148.624C180.699 148.738 180.638 148.861 180.524 148.9C180.502 148.909 180.479 148.912 180.455 148.912Z" fill="#353B4A"/>
<path d="M206.136 147.845C206.127 147.845 206.117 147.844 206.107 147.843C205.988 147.827 205.905 147.719 205.921 147.6C206.075 146.432 207.375 146.006 208.074 145.776C208.188 145.739 208.311 145.802 208.349 145.916C208.386 146.03 208.324 146.153 208.209 146.19C207.368 146.466 206.461 146.83 206.352 147.657C206.337 147.766 206.243 147.845 206.136 147.845Z" fill="#353B4A"/>
<path d="M178.51 141.815C178.494 141.815 178.476 141.813 178.459 141.809C178.342 141.781 178.271 141.664 178.297 141.548C178.662 139.996 179.318 139.113 179.896 138.333C180.892 136.991 181.678 135.93 180.768 132.061C180.437 130.651 180.263 129.28 181.758 128.015C181.85 127.938 181.986 127.948 182.064 128.041C182.142 128.132 182.131 128.269 182.039 128.347C180.842 129.36 180.814 130.359 181.192 131.963C182.147 136.026 181.266 137.216 180.245 138.593C179.665 139.375 179.066 140.183 178.721 141.647C178.697 141.747 178.608 141.815 178.51 141.815Z" fill="#353B4A"/>
<path d="M210.112 142.724C210.082 142.724 210.051 142.718 210.022 142.705C209.913 142.655 209.866 142.526 209.915 142.416C210.53 141.068 210.277 139.348 209.3 138.235C208.875 137.752 208.408 137.406 207.955 137.071C206.791 136.21 205.691 135.396 205.855 132.587C205.863 132.467 205.959 132.376 206.085 132.382C206.205 132.39 206.296 132.492 206.288 132.612C206.138 135.186 207.054 135.864 208.213 136.72C208.683 137.069 209.171 137.429 209.626 137.947C210.713 139.186 210.994 141.098 210.309 142.598C210.274 142.677 210.195 142.724 210.112 142.724Z" fill="#353B4A"/>
<path d="M186.66 152.229C185.839 152.17 185.42 149.002 187.412 149.144C188.474 149.22 188.003 152.325 186.66 152.229Z" fill="#382823"/>
<path d="M199.554 152.229C198.733 152.17 198.314 149.002 200.304 149.144C201.368 149.22 200.897 152.325 199.554 152.229Z" fill="#382823"/>
<path d="M181.8 176.027C187.032 181.906 196.995 185.9 203.851 176.929C204.394 176.219 203.79 176.01 218.963 181.552C225.715 239.158 228.526 253.98 222.998 254.522C202.489 256.53 177.99 265.465 165.071 255.547C157.587 249.801 163.403 186.51 165.625 181.509C181.635 175.33 181.103 175.244 181.8 176.027Z" fill="#8A9077"/>
<path d="M181.924 260.336C175.316 260.336 169.412 259.154 164.938 255.719C160.581 252.375 160.908 230.8 161.491 218.238C162.292 200.944 164.299 183.955 165.426 181.42L165.462 181.338L165.546 181.305C169.032 179.959 171.735 178.904 173.836 178.082C181.323 175.155 181.324 175.155 181.921 175.837L181.961 175.883C184.691 178.949 189.432 182.16 194.527 181.967C198.079 181.834 201.158 180.094 203.678 176.798L203.733 176.724C204.285 175.961 204.283 175.959 218.42 181.123L219.163 181.394L219.178 181.527C220.223 190.446 221.175 198.345 222.015 205.314C225.976 238.191 227.457 250.492 224.822 253.775C224.361 254.35 223.771 254.665 223.018 254.739C217.485 255.281 211.568 256.345 205.845 257.373C197.674 258.841 189.355 260.336 181.924 260.336ZM165.789 181.679C164.678 184.44 162.695 201.661 161.925 218.258C160.94 239.491 162.135 253.019 165.202 255.374C174.554 262.554 190.423 259.703 205.768 256.944C211.499 255.914 217.426 254.849 222.976 254.305C223.607 254.244 224.1 253.981 224.483 253.502C227.005 250.361 225.417 237.189 221.584 205.365C220.749 198.43 219.802 190.576 218.762 181.71L218.271 181.531C205.224 176.765 204.443 176.48 204.084 176.978L204.023 177.06C201.42 180.466 198.231 182.262 194.544 182.4C189.284 182.593 184.432 179.312 181.637 176.171L181.594 176.122C181.206 175.679 181.062 175.723 173.993 178.487C171.91 179.303 169.235 180.349 165.789 181.679Z" fill="#787160"/>
<path d="M190.083 251.629C189.295 250.811 191.024 249.646 191.604 251.015C191.795 251.464 191.669 252.004 191.373 252.392C192.439 252.607 192.759 250.621 193.814 250.721C195.81 250.908 194.253 260.808 188.39 259.718C187.137 259.485 187.88 258.476 188.136 257.624C189.855 251.898 186.26 248.681 190.083 251.629Z" fill="#EA795C"/>
<path d="M164.59 254.592L166.45 248.122L179.824 252.604C185.411 252.054 188.552 249.606 192.398 252.724C192.69 252.96 192.684 253.431 192.358 253.618C190.975 254.414 189.635 253.784 189.042 253.697C186.572 253.333 183.172 257.244 187.701 258.7C194.084 260.752 194.358 252.981 196.258 252.265C197.974 251.618 197.432 254.925 194.574 259.62C192.958 262.274 192.579 260.873 188.893 262.247C187.827 262.645 187.569 262.693 186.57 262.219C177.007 257.681 180.115 258.893 164.59 254.592Z" fill="#F9A587"/>
<path d="M127.961 235.422C121.287 245.557 128.989 249.693 135.202 251.562C143.398 254.027 177.542 262.39 178.879 258.787C181.293 252.289 181.63 251.13 180.251 250.359C146.581 231.542 142.122 243.245 161.835 223.522C164.058 221.298 165.504 218.419 165.971 215.308C167.754 203.448 169.156 180.144 165.623 181.508C156.768 184.926 146.296 207.575 127.961 235.422Z" fill="#8A9077"/>
<path d="M175.462 259.855C165.842 259.855 140.268 253.313 135.139 251.77C129.882 250.189 126.668 247.874 125.585 244.892C124.614 242.214 125.351 238.988 127.778 235.301C133.659 226.371 138.729 217.978 143.201 210.574C152.641 194.945 159.462 183.653 165.546 181.305C165.886 181.173 166.214 181.224 166.495 181.449C169.258 183.667 167.741 205.001 166.187 215.341C165.708 218.525 164.256 221.408 161.988 223.677C159.444 226.222 157.298 228.248 155.574 229.876C151.933 233.314 150.105 235.04 150.334 236.148C150.545 237.164 152.585 237.905 156.29 239.249C161.112 240.999 169.182 243.926 180.356 250.171C181.92 251.045 181.469 252.436 179.082 258.863C178.825 259.561 177.501 259.855 175.462 259.855ZM128.142 235.542C125.795 239.106 125.073 242.202 125.994 244.744C127.027 247.59 130.146 249.815 135.264 251.354C145.935 254.564 177.519 261.824 178.676 258.712C181.057 252.302 181.35 251.224 180.146 250.55C169.002 244.322 160.953 241.403 156.143 239.658C152.166 238.215 150.17 237.491 149.911 236.236C149.632 234.891 151.401 233.22 155.277 229.559C156.999 227.933 159.143 225.91 161.682 223.369C163.884 221.166 165.294 218.368 165.758 215.276C167.545 203.389 168.55 183.654 166.223 181.788C166.064 181.659 165.899 181.635 165.702 181.711C159.757 184.005 152.969 195.244 143.573 210.798C139.099 218.207 134.027 226.602 128.142 235.542Z" fill="#787160"/>
<path d="M194.003 251.167C194.749 250.31 192.963 249.234 192.453 250.629C192.286 251.087 192.437 251.621 192.754 251.994C191.699 252.263 191.28 250.296 190.233 250.448C188.249 250.737 190.302 260.545 196.102 259.161C197.342 258.865 196.549 257.896 196.25 257.057C194.244 251.424 197.674 248.03 194.003 251.167Z" fill="#EA795C"/>
<path d="M219.614 252.842L217.431 246.474L204.3 251.624C198.692 251.356 195.432 249.07 191.748 252.377C191.468 252.628 191.499 253.096 191.834 253.267C193.255 253.994 194.561 253.296 195.149 253.179C197.598 252.692 201.19 256.425 196.74 258.108C190.469 260.479 189.803 252.731 187.87 252.112C186.124 251.552 186.832 254.827 189.922 259.373C191.67 261.941 191.978 260.523 195.728 261.71C196.813 262.053 197.073 262.088 198.047 261.565C207.368 256.553 204.324 257.92 219.614 252.842Z" fill="#F9A587"/>
<path d="M231.495 236.697C215.296 242.897 206.598 247.304 203.65 248.887C201.796 249.882 203.276 251.741 204.867 257.489C205.1 258.33 205.93 258.864 206.791 258.729C258.875 250.562 261.402 246.337 256.731 236.053C253.52 228.981 226.512 184.286 218.963 181.551C216.227 180.56 215.783 203.261 217.551 212.642C219.194 221.358 235.627 235.116 231.495 236.697Z" fill="#8A9077"/>
<path d="M206.523 258.968C205.666 258.968 204.893 258.398 204.658 257.548C204.212 255.934 203.77 254.618 203.415 253.56C202.481 250.77 202.054 249.498 203.547 248.696C206.538 247.09 215.241 242.685 231.417 236.494C231.687 236.391 231.848 236.229 231.91 236C232.276 234.647 229.468 231.153 226.496 227.453C222.591 222.593 218.167 217.085 217.337 212.683C215.682 203.901 215.985 183.468 218.295 181.503C218.582 181.258 218.857 181.284 219.037 181.348C226.765 184.147 253.937 229.376 256.93 235.965C258.434 239.276 259.171 241.971 257.884 244.361C255.026 249.665 241.664 253.482 206.825 258.946C206.724 258.961 206.623 258.968 206.523 258.968ZM231.573 236.899C215.419 243.082 206.736 247.476 203.753 249.079C202.633 249.68 202.861 250.538 203.828 253.421C204.184 254.484 204.628 255.808 205.077 257.431C205.281 258.167 206.002 258.634 206.759 258.515C241.44 253.076 254.719 249.318 257.502 244.154C258.709 241.913 258.026 239.428 256.535 236.144C252.876 228.09 226.233 184.415 218.89 181.757C218.818 181.73 218.716 181.716 218.578 181.833C216.555 183.555 216.031 203.397 217.766 212.602C218.576 216.897 223.156 222.599 226.836 227.179C230.144 231.296 232.755 234.547 232.332 236.112C232.231 236.481 231.976 236.745 231.573 236.899Z" fill="#787160"/>
<path d="M183.54 241.376C183.474 241.376 183.407 241.345 183.366 241.287C179.211 235.628 174.04 228.586 173.247 220.548C172.773 215.756 173.883 210.923 174.956 206.249C176.163 200.992 177.411 195.556 176.342 190.27C175.757 187.375 174.498 184.645 173.281 182.005L171.931 179.074C171.88 178.965 171.929 178.836 172.037 178.786C172.146 178.735 172.275 178.783 172.325 178.892L173.676 181.823C174.903 184.486 176.173 187.239 176.769 190.183C177.856 195.562 176.597 201.044 175.38 206.346C174.316 210.985 173.214 215.783 173.68 220.505C174.463 228.424 179.593 235.413 183.716 241.029C183.787 241.126 183.767 241.262 183.67 241.334C183.63 241.362 183.585 241.376 183.54 241.376Z" fill="#FFBA73"/>
<path d="M215.772 240.869C215.636 240.86 215.546 240.756 215.556 240.636C216.041 234.137 216.544 227.418 215.175 220.927C214.56 218.011 213.555 215.127 212.583 212.339C211.234 208.467 209.839 204.462 209.465 200.31C208.813 193.082 211.227 186.135 213.932 179.705C213.979 179.593 214.106 179.543 214.217 179.589C214.327 179.636 214.38 179.763 214.333 179.873C211.649 186.252 209.255 193.138 209.898 200.271C210.267 204.37 211.653 208.349 212.994 212.196C213.97 214.997 214.979 217.894 215.601 220.838C216.984 227.39 216.478 234.14 215.99 240.669C215.98 240.782 215.885 240.869 215.772 240.869Z" fill="#FFBA73"/>
<path d="M200.574 214.343C190.631 214.343 180.534 211.684 171.37 209.271C164.08 207.351 157.195 205.537 151.768 205.523C149.975 205.526 148.151 205.696 146.364 206.053C146.247 206.078 146.131 206 146.108 205.883C146.085 205.765 146.161 205.65 146.279 205.627C148.094 205.266 149.937 205.095 151.769 205.089C157.252 205.104 164.164 206.924 171.482 208.851C183.402 211.991 196.914 215.551 209.543 213.088C213.654 212.286 217.64 210.87 221.496 209.5C226.839 207.602 232.364 205.639 238.343 205.257C238.46 205.245 238.566 205.341 238.574 205.46C238.581 205.58 238.49 205.683 238.371 205.691C232.452 206.068 226.957 208.021 221.642 209.909C217.772 211.284 213.769 212.706 209.627 213.513C206.644 214.095 203.615 214.343 200.574 214.343Z" fill="white"/>
<path d="M128.873 248.868C128.826 248.868 128.778 248.853 128.739 248.822C128.644 248.748 128.628 248.612 128.702 248.516C131.32 245.188 134.369 242.105 137.317 239.122C142.245 234.138 147.341 228.985 150.439 222.63C152.326 218.76 153.437 214.5 154.511 210.38C155.464 206.721 156.45 202.937 157.98 199.414C159.022 197.013 160.332 194.7 161.599 192.464C162.676 190.562 163.791 188.595 164.732 186.587C165.649 184.632 166.331 182.731 166.759 180.938C166.787 180.821 166.905 180.75 167.021 180.777C167.138 180.805 167.21 180.922 167.182 181.039C166.745 182.861 166.054 184.789 165.126 186.771C164.177 188.794 163.059 190.77 161.977 192.679C160.717 194.905 159.412 197.208 158.378 199.587C156.863 203.079 155.881 206.846 154.931 210.49C153.853 214.63 152.737 218.911 150.831 222.82C147.701 229.239 142.579 234.418 137.627 239.428C134.687 242.402 131.647 245.476 129.044 248.784C129 248.84 128.937 248.868 128.873 248.868Z" fill="#FFBA73"/>
<path d="M249.478 249.946C249.422 249.946 249.367 249.924 249.324 249.882C247.289 247.835 245.628 245.004 244.52 241.693C243.631 239.035 243.089 236.244 242.565 233.543C242.149 231.399 241.718 229.181 241.117 227.051C239.491 221.291 236.537 215.74 232.337 210.554C231.777 209.863 231.19 209.173 230.623 208.504C229.126 206.744 227.579 204.924 226.369 202.905C224.312 199.472 223.25 195.496 222.408 191.709C221.759 188.79 221.199 185.814 220.74 182.86C220.722 182.741 220.803 182.63 220.921 182.612C221.041 182.595 221.151 182.675 221.169 182.793C221.627 185.736 222.186 188.704 222.833 191.615C223.665 195.365 224.716 199.301 226.741 202.681C227.933 204.669 229.468 206.475 230.953 208.222C231.522 208.893 232.112 209.586 232.675 210.281C236.912 215.512 239.892 221.115 241.535 226.933C242.14 229.08 242.572 231.307 242.99 233.459C243.512 236.146 244.052 238.924 244.932 241.554C246.019 244.801 247.644 247.575 249.631 249.574C249.716 249.658 249.716 249.797 249.63 249.882C249.589 249.924 249.534 249.946 249.478 249.946Z" fill="#FFBA73"/>
<path d="M197.573 232.103C192.479 232.103 186.994 231.593 181.017 230.365C176.203 229.376 171.387 227.924 166.73 226.522C157.154 223.637 147.251 220.651 136.921 221.567C136.806 221.575 136.696 221.488 136.685 221.369C136.675 221.249 136.764 221.144 136.883 221.133C147.298 220.214 157.24 223.209 166.856 226.106C171.504 227.506 176.31 228.954 181.105 229.94C202.768 234.393 217.982 229.341 231.404 224.884C237.004 223.025 242.294 221.269 247.788 220.221C247.904 220.198 248.019 220.275 248.042 220.393C248.064 220.511 247.987 220.625 247.869 220.648C242.403 221.69 237.126 223.442 231.54 225.297C221.765 228.542 211.039 232.102 197.573 232.103Z" fill="white"/>
<path d="M207.656 200.218C199.918 200.218 192.283 198.123 184.87 196.089C175.106 193.41 165.01 190.641 154.819 192.757C154.7 192.784 154.587 192.706 154.562 192.589C154.537 192.471 154.614 192.356 154.73 192.331C165.023 190.194 175.17 192.978 184.983 195.67C193.28 197.946 201.854 200.3 210.506 199.683C215.861 199.302 221.134 197.773 226.234 196.294C227.853 195.825 229.527 195.339 231.18 194.897C231.295 194.869 231.415 194.935 231.446 195.051C231.477 195.167 231.408 195.286 231.292 195.317C229.643 195.758 227.971 196.243 226.354 196.712C221.233 198.197 215.937 199.733 210.536 200.118C209.577 200.184 208.616 200.218 207.656 200.218Z" fill="white"/>
<path d="M200.59 250.351C200.57 250.351 200.55 250.348 200.53 250.342C200.414 250.31 200.347 250.19 200.381 250.074C202.202 243.684 202.046 236.695 199.945 230.393C199.116 227.905 197.975 225.476 196.871 223.126C195.351 219.889 193.778 216.542 192.994 212.988C191.776 207.459 192.492 201.632 193.184 195.997C193.748 191.415 194.33 186.676 193.833 182.217C193.82 182.098 193.906 181.99 194.025 181.977C194.141 181.966 194.252 182.049 194.265 182.168C194.768 186.678 194.181 191.443 193.615 196.051C192.927 201.649 192.215 207.438 193.419 212.895C194.192 216.402 195.754 219.726 197.264 222.942C198.373 225.302 199.52 227.744 200.357 230.256C202.486 236.64 202.642 243.721 200.799 250.193C200.771 250.288 200.684 250.351 200.59 250.351Z" fill="#FFBA73"/>
<path d="M189.23 188.305C183.569 188.305 177.878 187.06 172.32 185.845C168.998 185.118 165.563 184.367 162.175 183.887C162.057 183.87 161.974 183.761 161.99 183.642C162.007 183.523 162.119 183.44 162.236 183.456C165.639 183.938 169.082 184.691 172.412 185.419C180.23 187.128 188.314 188.897 196.15 187.146C198.673 186.583 200.939 185.725 203.338 184.817C206.996 183.434 211.141 181.866 217.46 180.801C217.578 180.781 217.69 180.861 217.71 180.979C217.731 181.098 217.65 181.209 217.532 181.23C211.257 182.287 207.132 183.848 203.494 185.224C201.079 186.137 198.799 187 196.247 187.57C193.922 188.091 191.577 188.305 189.23 188.305Z" fill="white"/>
<path d="M125.47 241.526C125.401 241.526 125.332 241.491 125.289 241.429C125.223 241.329 125.249 241.194 125.349 241.128C132.459 236.364 140.865 236.632 147.003 236.828C148.379 236.872 149.678 236.914 150.773 236.887C150.892 236.899 150.992 236.979 150.996 237.099C150.999 237.22 150.903 237.319 150.783 237.322C149.676 237.349 148.371 237.309 146.99 237.264C140.909 237.068 132.584 236.803 125.591 241.489C125.554 241.514 125.512 241.526 125.47 241.526Z" fill="white"/>
<path d="M147.739 255.046C147.705 255.046 147.67 255.037 147.638 255.021C147.532 254.965 147.491 254.834 147.547 254.727C150.816 248.508 156.276 243.923 162.926 241.816C163.041 241.78 163.163 241.842 163.198 241.957C163.235 242.072 163.171 242.194 163.057 242.231C156.518 244.303 151.146 248.813 147.931 254.93C147.892 255.004 147.817 255.046 147.739 255.046Z" fill="white"/>
<path d="M258.332 241.781C258.323 241.781 258.315 241.781 258.306 241.779C252.922 241.137 248.094 239.06 243.423 237.049C239.094 235.185 234.616 233.258 229.803 232.56C229.684 232.542 229.601 232.432 229.619 232.313C229.636 232.194 229.746 232.112 229.866 232.128C234.736 232.834 239.241 234.773 243.596 236.648C248.238 238.646 253.037 240.712 258.359 241.346C258.478 241.359 258.563 241.468 258.548 241.587C258.534 241.701 258.44 241.781 258.332 241.781Z" fill="white"/>
<path d="M197.01 255.586C196.976 255.586 196.94 255.578 196.907 255.561C196.801 255.504 196.761 255.372 196.818 255.267C198.356 252.397 205.356 251.13 214.217 249.526C221.585 248.193 229.936 246.681 236.685 243.894C238.462 243.16 240.231 242.309 241.942 241.485C245.086 239.972 248.338 238.407 251.773 237.506C252.726 237.256 253.766 237.051 254.867 236.835C255.545 236.702 256.239 236.564 256.938 236.412C257.055 236.385 257.171 236.46 257.197 236.578C257.222 236.695 257.148 236.811 257.03 236.837C256.329 236.99 255.631 237.128 254.951 237.262C253.856 237.477 252.823 237.681 251.884 237.928C248.489 238.818 245.257 240.374 242.13 241.878C240.413 242.703 238.638 243.558 236.85 244.296C230.057 247.101 221.682 248.616 214.293 249.954C205.893 251.474 198.639 252.787 197.2 255.473C197.162 255.545 197.087 255.586 197.01 255.586Z" fill="#FFBA73"/>
<path d="M236.789 253.502C236.756 253.502 236.722 253.495 236.691 253.479C232.491 251.368 229.253 247.87 226.396 244.784C223.899 242.088 221.541 239.541 218.89 238.219C218.782 238.166 218.739 238.036 218.792 237.928C218.846 237.82 218.977 237.775 219.084 237.83C221.807 239.186 224.191 241.761 226.715 244.488C229.686 247.696 232.758 251.014 236.888 253.091C236.995 253.144 237.038 253.275 236.984 253.382C236.945 253.46 236.868 253.502 236.789 253.502Z" fill="white"/>
<path d="M185.494 255.016C185.482 255.016 185.47 255.015 185.458 255.013C181.365 254.355 177.708 252.187 174.171 250.091C170.698 248.031 167.107 245.904 163.133 245.237C161.12 244.899 159.03 244.944 157.01 244.989C156.093 245.008 155.145 245.027 154.215 245.015C142.696 244.83 136.332 240.228 131.217 236.531C130.263 235.841 129.362 235.189 128.489 234.616C128.388 234.549 128.361 234.415 128.427 234.314C128.492 234.213 128.627 234.187 128.728 234.252C129.608 234.831 130.513 235.485 131.471 236.178C136.536 239.84 142.84 244.397 154.221 244.58C155.145 244.594 156.088 244.575 156.999 244.554C159.04 244.509 161.15 244.464 163.204 244.809C167.257 245.489 170.884 247.638 174.392 249.717C177.894 251.793 181.515 253.939 185.527 254.584C185.645 254.603 185.726 254.715 185.707 254.833C185.691 254.939 185.599 255.016 185.494 255.016Z" fill="#FFBA73"/>
<path d="M239.204 237.494C237.45 237.494 235.703 237.029 234.183 236.131C234.08 236.07 234.046 235.937 234.106 235.833C234.167 235.729 234.3 235.696 234.404 235.756C236.531 237.013 239.122 237.383 241.514 236.77C241.63 236.741 241.749 236.811 241.779 236.927C241.809 237.044 241.738 237.162 241.623 237.192C240.829 237.395 240.017 237.494 239.204 237.494Z" fill="#787160"/>
<path d="M148.505 236.753C145.975 236.753 143.53 235.339 142.271 233.143C142.211 233.039 142.247 232.906 142.351 232.846C142.455 232.787 142.588 232.823 142.648 232.927C143.831 234.989 146.13 236.318 148.505 236.318C148.514 236.318 148.524 236.32 148.528 236.318C148.648 236.318 148.744 236.415 148.746 236.535C148.746 236.663 148.63 236.752 148.505 236.753Z" fill="#787160"/>
<path d="M190.889 242.625C190.783 242.625 190.691 242.548 190.675 242.441C190.656 242.323 190.738 242.211 190.857 242.193C202.543 240.408 208.683 228.127 212.746 220.001C212.8 219.894 212.93 219.85 213.038 219.903C213.145 219.957 213.189 220.088 213.135 220.195C209.032 228.402 202.831 240.803 190.923 242.622C190.911 242.624 190.9 242.625 190.889 242.625Z" fill="#787160"/>
<path d="M191.863 185.952C186.029 185.952 179.848 182.751 178.54 179.011C178.5 178.897 178.56 178.774 178.673 178.734C178.787 178.696 178.91 178.755 178.949 178.867C180.223 182.508 186.381 185.636 192.127 185.516C192.249 185.523 192.346 185.609 192.348 185.729C192.35 185.849 192.255 185.948 192.135 185.95C192.045 185.952 191.954 185.952 191.863 185.952Z" fill="#787160"/>
<path d="M163.624 225.677C163.568 225.677 163.513 225.656 163.472 225.614C163.386 225.53 163.385 225.392 163.469 225.307C166.187 222.547 167.918 218.907 168.347 215.057C168.361 214.938 168.47 214.854 168.587 214.865C168.706 214.878 168.793 214.986 168.779 215.105C168.34 219.051 166.564 222.782 163.779 225.611C163.736 225.655 163.681 225.677 163.624 225.677Z" fill="#787160"/>
<path d="M223.908 270.207H162.994C159.721 270.207 157.068 267.552 157.068 264.278V220.537C157.068 217.263 159.721 214.608 162.994 214.608H223.908C227.181 214.608 229.834 217.263 229.834 220.537V264.278C229.834 267.552 227.181 270.207 223.908 270.207Z" fill="#858789"/>
<path d="M223.908 270.424H162.993C159.606 270.424 156.85 267.667 156.85 264.278V220.537C156.85 217.148 159.606 214.391 162.993 214.391H223.908C227.295 214.391 230.05 217.148 230.05 220.537V264.278C230.05 267.667 227.295 270.424 223.908 270.424ZM162.993 214.826C159.846 214.826 157.285 217.388 157.285 220.537V264.278C157.285 267.427 159.846 269.989 162.993 269.989H223.908C227.055 269.989 229.616 267.427 229.616 264.278V220.537C229.616 217.388 227.055 214.826 223.908 214.826H162.993Z" fill="#D2D4D5"/>
<path d="M198.497 242.408C198.497 245.196 196.237 247.456 193.451 247.456C190.664 247.456 188.404 245.195 188.404 242.408C188.404 239.619 190.664 237.358 193.451 237.358C196.237 237.359 198.497 239.619 198.497 242.408Z" fill="#D2D4D5"/>
<path d="M193.45 247.674C190.548 247.674 188.187 245.311 188.187 242.408C188.187 239.503 190.548 237.142 193.45 237.142C196.353 237.142 198.714 239.504 198.714 242.408C198.715 245.312 196.353 247.674 193.45 247.674ZM193.45 237.576C190.787 237.576 188.621 239.743 188.621 242.408C188.621 245.072 190.787 247.239 193.45 247.239C196.113 247.239 198.279 245.072 198.279 242.408C198.279 239.743 196.113 237.576 193.45 237.576Z" fill="#858789"/>
<path d="M175.387 235.147L174.994 234.961L175.032 234.877L175.429 235.057L175.387 235.147Z" fill="white"/>
</g>
<defs>
<clipPath id="clip0_123_24">
<rect width="472" height="368" fill="white" transform="translate(0 0.5)"/>
</clipPath>
</defs>
</svg>
